<?xml version="1.0" encoding="UTF-8"?>
<svg version="1.1" xmlns="http://www.w3.org/2000/svg" width="256" height="256">
<path d="M0 0 C6.14907934 6.14214747 6.51721153 18.65811996 7.98266602 26.828125 C8.20422363 28.04101196 8.42578125 29.25389893 8.65405273 30.50354004 C9.25457693 33.79629959 9.85085769 37.08977231 10.44518781 40.38365173 C11.07202729 43.85178001 11.70440869 47.31889772 12.33616638 50.78613281 C13.53106621 57.3487095 14.72107128 63.91216363 15.90927309 70.47595596 C17.25519637 77.90967282 18.60658471 85.34239273 19.95844376 92.77503204 C22.27232998 105.49756889 24.58208358 118.22084908 26.88737488 130.94494629 C27.07931427 132.00435425 27.27125366 133.06376221 27.4690094 134.15527344 C27.65111528 135.1633606 27.83322117 136.17144775 28.02084541 137.21008301 C28.38702053 139.22290823 28.75803511 141.23485812 29.13349724 143.24597168 C29.31329187 144.2131311 29.49308651 145.18029053 29.67832947 146.17675781 C29.83820815 147.0278009 29.99808683 147.87884399 30.16281033 148.75567627 C31.08819925 154.3860012 31.49971993 158.44233186 28.75 163.5625 C22.8759203 169.57249162 11.0580149 169.95341925 3.13671875 171.31640625 C2.05813095 171.50655304 0.97954315 171.69669983 -0.13172913 171.89260864 C-2.45445026 172.30173786 -4.77755816 172.70867628 -7.10101318 173.11361694 C-13.43265872 174.2178555 -19.76107927 175.34032515 -26.08984375 176.4609375 C-27.38710388 176.69026474 -28.68436401 176.91959198 -30.02093506 177.15586853 C-41.24223866 179.14327984 -52.44989018 181.19964314 -63.65304565 183.28665161 C-66.83946512 183.8800214 -70.02624102 184.47143892 -73.21313477 185.06225586 C-83.13052263 186.90116194 -93.04765933 188.74135806 -102.96307945 190.59084606 C-112.23112468 192.31953695 -121.50035024 194.04168101 -130.77132225 195.75461102 C-135.42403486 196.61454161 -140.07609575 197.47770113 -144.72674561 198.34872437 C-149.12910085 199.173185 -153.53295789 199.98910414 -157.93803787 200.79887581 C-159.57183818 201.10075184 -161.20507731 201.40568377 -162.83768845 201.71392632 C-184.41256439 205.78246605 -184.41256439 205.78246605 -190.875 202.375 C-197.44194585 195.75327254 -197.63625878 182.46771634 -199.22729492 173.58813477 C-199.6276881 171.36004138 -200.03897934 169.13414043 -200.45117188 166.90820312 C-200.71158849 165.47407639 -200.97137679 164.03983539 -201.23046875 162.60546875 C-201.4627417 161.32438232 -201.69501465 160.0432959 -201.93432617 158.72338867 C-202.39555351 155.48226515 -202.53466943 152.45446821 -202.4375 149.1875 C-203.0975 149.1875 -203.7575 149.1875 -204.4375 149.1875 C-204.58445313 148.05441406 -204.73140625 146.92132813 -204.8828125 145.75390625 C-206.34877872 134.82445247 -208.13430014 123.97074658 -210.125 113.125 C-210.24830688 112.45146484 -210.37161377 111.77792969 -210.49865723 111.08398438 C-211.99405931 102.92463391 -213.51492402 94.77014945 -215.04627991 86.61747742 C-215.79091467 82.64299674 -216.52835269 78.6671974 -217.26480103 74.69119263 C-217.62676413 72.74741826 -217.99208178 70.80426524 -218.3609314 68.86178589 C-218.88163291 66.11895443 -219.39108304 63.37423348 -219.8984375 60.62890625 C-220.05438889 59.82280914 -220.21034027 59.01671204 -220.37101746 58.18618774 C-221.55229591 51.69529356 -222.82844679 44.45622496 -220.1875 38.25 C-215.72895402 34.90609051 -210.83453409 34.27267905 -205.4375 33.1875 C-204.20128906 32.90390625 -202.96507812 32.6203125 -201.69140625 32.328125 C-192.54631422 30.25024071 -183.34017302 28.65483758 -174.08345413 27.16396141 C-155.50318146 24.15569737 -136.98913638 20.78185944 -118.4765625 17.38671875 C-117.76449111 17.25614917 -117.05241972 17.12557958 -116.31877041 16.99105334 C-107.49139154 15.37205697 -98.6648841 13.74833989 -89.83872485 12.12270921 C-79.9999554 10.31067586 -70.16034097 8.50324021 -60.32074547 6.69569874 C-58.86075181 6.42748996 -57.40075844 6.15927956 -55.94076538 5.8910675 C-55.22811409 5.76015317 -54.51546281 5.62923884 -53.78121603 5.49435741 C-49.58119803 4.72271147 -45.38133328 3.95023823 -41.18161035 3.17698801 C-39.21178604 2.81433954 -37.241918 2.45192866 -35.27204895 2.08952332 C-32.88047586 1.64952721 -30.48897123 1.20915875 -28.09754944 0.76834106 C-27.03907303 0.57369766 -25.98059662 0.37905426 -24.89004517 0.17851257 C-23.51941894 -0.07389175 -23.51941894 -0.07389175 -22.12110329 -0.33139515 C-6.08192053 -3.20683082 -6.08192053 -3.20683082 0 0 Z " fill="#404140" transform="translate(223.4375,26.8125)"/>
<path d="M0 0 C6.14907934 6.14214747 6.51721153 18.65811996 7.98266602 26.828125 C8.20422363 28.04101196 8.42578125 29.25389893 8.65405273 30.50354004 C9.25457693 33.79629959 9.85085769 37.08977231 10.44518781 40.38365173 C11.07202729 43.85178001 11.70440869 47.31889772 12.33616638 50.78613281 C13.53106621 57.3487095 14.72107128 63.91216363 15.90927309 70.47595596 C17.25519637 77.90967282 18.60658471 85.34239273 19.95844376 92.77503204 C22.27232998 105.49756889 24.58208358 118.22084908 26.88737488 130.94494629 C27.07931427 132.00435425 27.27125366 133.06376221 27.4690094 134.15527344 C27.65111528 135.1633606 27.83322117 136.17144775 28.02084541 137.21008301 C28.38702053 139.22290823 28.75803511 141.23485812 29.13349724 143.24597168 C29.31329187 144.2131311 29.49308651 145.18029053 29.67832947 146.17675781 C29.83820815 147.0278009 29.99808683 147.87884399 30.16281033 148.75567627 C31.08819925 154.3860012 31.49971993 158.44233186 28.75 163.5625 C22.8759203 169.57249162 11.0580149 169.95341925 3.13671875 171.31640625 C2.05813095 171.50655304 0.97954315 171.69669983 -0.13172913 171.89260864 C-2.45445026 172.30173786 -4.77755816 172.70867628 -7.10101318 173.11361694 C-13.43265872 174.2178555 -19.76107927 175.34032515 -26.08984375 176.4609375 C-27.38710388 176.69026474 -28.68436401 176.91959198 -30.02093506 177.15586853 C-41.24223866 179.14327984 -52.44989018 181.19964314 -63.65304565 183.28665161 C-66.83946512 183.8800214 -70.02624102 184.47143892 -73.21313477 185.06225586 C-83.13052263 186.90116194 -93.04765933 188.74135806 -102.96307945 190.59084606 C-112.23112468 192.31953695 -121.50035024 194.04168101 -130.77132225 195.75461102 C-135.42403486 196.61454161 -140.07609575 197.47770113 -144.72674561 198.34872437 C-149.12910085 199.173185 -153.53295789 199.98910414 -157.93803787 200.79887581 C-159.57183818 201.10075184 -161.20507731 201.40568377 -162.83768845 201.71392632 C-184.41256439 205.78246605 -184.41256439 205.78246605 -190.875 202.375 C-197.44194585 195.75327254 -197.63625878 182.46771634 -199.22729492 173.58813477 C-199.6276881 171.36004138 -200.03897934 169.13414043 -200.45117188 166.90820312 C-200.71158849 165.47407639 -200.97137679 164.03983539 -201.23046875 162.60546875 C-201.4627417 161.32438232 -201.69501465 160.0432959 -201.93432617 158.72338867 C-202.39555351 155.48226515 -202.53466943 152.45446821 -202.4375 149.1875 C-203.0975 149.1875 -203.7575 149.1875 -204.4375 149.1875 C-204.58445313 148.05441406 -204.73140625 146.92132813 -204.8828125 145.75390625 C-206.34877872 134.82445247 -208.13430014 123.97074658 -210.125 113.125 C-210.24830688 112.45146484 -210.37161377 111.77792969 -210.49865723 111.08398438 C-211.99405931 102.92463391 -213.51492402 94.77014945 -215.04627991 86.61747742 C-215.79091467 82.64299674 -216.52835269 78.6671974 -217.26480103 74.69119263 C-217.62676413 72.74741826 -217.99208178 70.80426524 -218.3609314 68.86178589 C-218.88163291 66.11895443 -219.39108304 63.37423348 -219.8984375 60.62890625 C-220.05438889 59.82280914 -220.21034027 59.01671204 -220.37101746 58.18618774 C-221.55229591 51.69529356 -222.82844679 44.45622496 -220.1875 38.25 C-215.72895402 34.90609051 -210.83453409 34.27267905 -205.4375 33.1875 C-204.20128906 32.90390625 -202.96507812 32.6203125 -201.69140625 32.328125 C-192.54631422 30.25024071 -183.34017302 28.65483758 -174.08345413 27.16396141 C-155.50318146 24.15569737 -136.98913638 20.78185944 -118.4765625 17.38671875 C-117.76449111 17.25614917 -117.05241972 17.12557958 -116.31877041 16.99105334 C-107.49139154 15.37205697 -98.6648841 13.74833989 -89.83872485 12.12270921 C-79.9999554 10.31067586 -70.16034097 8.50324021 -60.32074547 6.69569874 C-58.86075181 6.42748996 -57.40075844 6.15927956 -55.94076538 5.8910675 C-55.22811409 5.76015317 -54.51546281 5.62923884 -53.78121603 5.49435741 C-49.58119803 4.72271147 -45.38133328 3.95023823 -41.18161035 3.17698801 C-39.21178604 2.81433954 -37.241918 2.45192866 -35.27204895 2.08952332 C-32.88047586 1.64952721 -30.48897123 1.20915875 -28.09754944 0.76834106 C-27.03907303 0.57369766 -25.98059662 0.37905426 -24.89004517 0.17851257 C-23.51941894 -0.07389175 -23.51941894 -0.07389175 -22.12110329 -0.33139515 C-6.08192053 -3.20683082 -6.08192053 -3.20683082 0 0 Z M-29.6328125 17.3671875 C-30.31647888 17.49508163 -31.00014526 17.62297577 -31.70452881 17.75474548 C-33.19911446 18.03531501 -34.69307516 18.31922973 -36.1864624 18.60610962 C-38.64411037 19.07817576 -41.10329637 19.54139365 -43.56298828 20.00268555 C-47.2177326 20.68886657 -50.87177514 21.37863488 -54.52539062 22.07080078 C-65.11598952 24.07450529 -75.71462084 26.03524609 -86.3125 28 C-87.43990601 28.20933167 -88.56731201 28.41866333 -89.72888184 28.63433838 C-107.74343819 31.97796614 -125.77317744 35.23038717 -143.8125 38.4375 C-165.81927782 42.34549013 -165.81927782 42.34549013 -187.8057251 46.36584473 C-189.16871992 46.61888102 -190.53195579 46.87062282 -191.89544678 47.12097168 C-193.70057171 47.45293686 -195.5046259 47.79070967 -197.30859375 48.12890625 C-198.28755615 48.31138916 -199.26651855 48.49387207 -200.27514648 48.68188477 C-202.40530187 48.9794562 -202.40530187 48.9794562 -203.4375 50.1875 C-203.27051774 58.09895427 -201.90529795 65.85805184 -200.38671875 73.6015625 C-199.93274643 75.98444646 -199.48022144 78.36760641 -199.02880859 80.75097656 C-198.90537614 81.39980742 -198.78194368 82.04863827 -198.65477085 82.71713066 C-197.05815985 91.13502043 -195.5540129 99.5696747 -194.03989029 108.00270844 C-193.16556463 112.86821483 -192.28660225 117.73288391 -191.40820312 122.59765625 C-190.31911136 128.62985158 -189.23153839 134.66230739 -188.1496582 140.69580078 C-187.26018937 145.65551592 -186.3655877 150.61428058 -185.46747398 155.57243729 C-185.12950257 157.44357233 -184.7934074 159.31504733 -184.45926857 161.18687057 C-183.99571918 163.78222905 -183.52561457 166.37631982 -183.05395508 168.97021484 C-182.91938904 169.73268524 -182.784823 170.49515564 -182.6461792 171.2807312 C-181.94001784 175.12378771 -181.05074286 178.62278504 -179.4375 182.1875 C-169.06954056 181.75312621 -159.04659575 179.74823235 -148.88305664 177.78128052 C-143.52622139 176.74538222 -138.165184 175.731594 -132.8046875 174.71484375 C-131.69530823 174.50391586 -130.58592896 174.29298798 -129.44293213 174.07566833 C-117.95390779 171.89562883 -106.44811272 169.81255083 -94.9375 167.75 C-93.41893402 167.47755966 -93.41893402 167.47755966 -91.86968994 167.19961548 C-84.39294918 165.85856664 -76.91531624 164.52253681 -69.4375 163.1875 C-67.00455452 162.75294519 -64.57161189 162.31837444 -62.13867188 161.88378906 C-41.76707052 158.24532808 -41.76707052 158.24532808 -32.74023438 156.63696289 C-18.96745136 154.18204098 -5.19983543 151.7003442 8.5625 149.1875 C8.74021119 143.17794289 8.11495425 137.76059048 6.9453125 131.875 C6.77266373 130.97280228 6.60001495 130.07060455 6.4221344 129.1410675 C6.04688351 127.18278106 5.66845819 125.22510079 5.28720093 123.26797485 C4.24707937 117.9251979 3.23180232 112.57769468 2.21484375 107.23046875 C1.99981705 106.1024736 1.78479034 104.97447845 1.56324768 103.81230164 C-1.20787458 89.22032431 -3.78755361 74.59400569 -6.37469482 59.96850586 C-8.95991767 45.35410919 -11.61678992 30.75842139 -14.4375 16.1875 C-19.69780935 16.07825688 -24.4409804 16.37902659 -29.6328125 17.3671875 Z " fill="#8B8B8B" transform="translate(223.4375,26.8125)"/>
<path d="M0 0 C2.62804716 6.241612 4.23591655 11.29225035 2 18 C0.53091759 19.46908241 -0.97483774 20.90172491 -2.5 22.3125 C-4.8947734 24.88688141 -5.95985375 26.69044374 -7 30 C-8.79275866 26.88089144 -9.34290718 24.32317572 -9.625 20.75 C-9.73714844 19.41195312 -9.73714844 19.41195312 -9.8515625 18.046875 C-9.90054688 17.37140625 -9.94953125 16.6959375 -10 16 C-24.84518642 18.41782236 -39.64987032 20.9980613 -54.43182373 23.7755127 C-72.18619606 27.10872074 -89.95354846 30.36597709 -107.734375 33.5546875 C-108.58496365 33.70722866 -109.43555229 33.85976982 -110.31191635 34.01693344 C-118.79737971 35.53812142 -127.28351215 37.0555467 -135.77023888 38.56966972 C-139.75062443 39.27996821 -143.73084255 39.99120003 -147.7109375 40.703125 C-148.4779813 40.84032078 -149.2450251 40.97751656 -150.03531265 41.11886978 C-166.04134663 43.98478473 -182.0239974 46.97149436 -198 50 C-197.47627527 57.9344297 -196.4811542 65.61066929 -194.953125 73.41015625 C-194.49952902 75.79291819 -194.0471492 78.17591183 -193.59570312 80.55908203 C-193.47214321 81.20804034 -193.3485833 81.85699865 -193.22127914 82.52562237 C-191.61968828 90.95619719 -190.09955976 99.40164155 -188.57176208 107.84583664 C-187.86845614 111.73194498 -187.16324413 115.61770659 -186.45813751 119.50348854 C-185.18319984 126.53003411 -183.90943101 133.55679125 -182.63671875 140.58374023 C-181.73730496 145.54930319 -180.8366136 150.51463298 -179.93509674 155.47981453 C-179.59491687 157.35482037 -179.25522502 159.22991483 -178.91603851 161.10510063 C-178.44620772 163.7023675 -177.97475605 166.29933526 -177.50292969 168.89624023 C-177.36476837 169.66230591 -177.22660706 170.42837158 -177.08425903 171.21765137 C-176.48516215 174.50645291 -175.87747864 177.77263146 -175 181 C-163.70053597 180.4625317 -152.81016686 178.15706431 -141.75244141 175.93579102 C-139.32052536 175.44964693 -136.88694513 174.97259846 -134.453125 174.49609375 C-133.7227301 174.34611435 -132.99233521 174.19613495 -132.23980713 174.04161072 C-127.4111588 173.09907104 -122.9206421 172.86746794 -118 173 C-118 174.32 -118 175.64 -118 177 C-118.66 177 -119.32 177 -120 177 C-121.32806027 178.41685043 -121.32806027 178.41685043 -122.5625 180.25 C-122.99691406 180.85328125 -123.43132812 181.4565625 -123.87890625 182.078125 C-125.03707408 184.06355557 -125.49092681 185.77406954 -126 188 C-139.21298036 190.6875323 -152.43754607 193.3131078 -165.6875 195.8125 C-166.82614502 196.03123779 -167.96479004 196.24997559 -169.13793945 196.4753418 C-170.21003662 196.67554932 -171.28213379 196.87575684 -172.38671875 197.08203125 C-173.32733154 197.25968018 -174.26794434 197.4373291 -175.23706055 197.62036133 C-178.31949404 198.04389973 -180.8995331 198.3955543 -184 198 C-187.2873767 194.60183896 -188.58758142 191.87680585 -189.40039062 187.2578125 C-189.7109137 185.55818359 -189.7109137 185.55818359 -190.02770996 183.82421875 C-190.33883728 181.99310547 -190.33883728 181.99310547 -190.65625 180.125 C-190.88526001 178.85011719 -191.11427002 177.57523438 -191.35021973 176.26171875 C-191.96022159 172.86571427 -192.55244214 169.46684826 -193.14068604 166.0670166 C-193.72839108 162.68614024 -194.3312473 159.30798066 -194.93359375 155.9296875 C-195.63734268 151.97834259 -196.33905507 148.02668536 -197.03450012 144.0738678 C-198.52711566 135.59306243 -200.09548761 127.13033132 -201.72636414 118.67515564 C-202.853461 112.81850935 -203.8801231 106.95347936 -204.8125 101.0625 C-206.03737172 93.46816528 -207.37848143 85.90171127 -208.80859375 78.34375 C-208.96773758 77.49856308 -209.12688141 76.65337616 -209.29084778 75.78257751 C-210.08867311 71.54780406 -210.89474842 67.31488716 -211.71411133 63.08422852 C-212.01288684 61.5054381 -212.31132261 59.92658334 -212.609375 58.34765625 C-212.74979721 57.63907471 -212.89021942 56.93049316 -213.03489685 56.20043945 C-214.09004226 50.53851676 -215.12447577 44.37868122 -213.27172852 38.81178284 C-212 37 -212 37 -209.97137451 36.20422363 C-209.13616272 36.06528687 -208.30095093 35.9263501 -207.44042969 35.78320312 C-206.49053162 35.61622925 -205.54063354 35.44925537 -204.56195068 35.27722168 C-203.52572571 35.11355103 -202.48950073 34.94988037 -201.421875 34.78125 C-200.34488342 34.59663208 -199.26789185 34.41201416 -198.15826416 34.22180176 C-194.69141454 33.63122407 -191.22108363 33.06510494 -187.75 32.5 C-185.48800347 32.12014002 -183.22628059 31.73864666 -180.96484375 31.35546875 C-176.49638591 30.59969874 -172.02689406 29.85053832 -167.55664062 29.10546875 C-161.1815942 28.03688774 -154.81496641 26.92573612 -148.453125 25.78125 C-147.52385193 25.61620972 -146.59457886 25.45116943 -145.637146 25.28112793 C-144.78912415 25.12712524 -143.94110229 24.97312256 -143.06738281 24.81445312 C-142.32643372 24.68075317 -141.58548462 24.54705322 -140.82208252 24.40930176 C-138.91477196 24.05751366 -138.91477196 24.05751366 -137 23 C-135.50597396 22.72561637 -134.00433535 22.49190455 -132.5 22.28125 C-131.1696875 22.08982422 -131.1696875 22.08982422 -129.8125 21.89453125 C-127 21.5 -127 21.5 -124.1875 21.10546875 C-122.8571875 20.91404297 -122.8571875 20.91404297 -121.5 20.71875 C-120.6853125 20.60466797 -119.870625 20.49058594 -119.03125 20.37304688 C-116.9413174 20.08661465 -116.9413174 20.08661465 -115 19 C-112.23098461 18.55944021 -109.46448891 18.15723769 -106.6875 17.7734375 C-93.04996541 15.8052933 -79.53572749 13.18791659 -66 10.625 C-57.25758646 8.97570115 -48.51414278 7.3320437 -39.76806641 5.70227051 C-37.20758572 5.22506287 -34.64737328 4.74641414 -32.08740234 4.26647949 C-28.26796241 3.55286232 -24.44679261 2.84933241 -20.625 2.1484375 C-18.89624634 1.82330673 -18.89624634 1.82330673 -17.13256836 1.49160767 C-11.31992776 0.43642028 -5.9078347 -0.24705817 0 0 Z " fill="#BBBBBB" transform="translate(219,27)"/>
<path d="M0 0 C6.14907934 6.14214747 6.51721153 18.65811996 7.98266602 26.828125 C8.20422363 28.04101196 8.42578125 29.25389893 8.65405273 30.50354004 C9.25457693 33.79629959 9.85085769 37.08977231 10.44518781 40.38365173 C11.07202729 43.85178001 11.70440869 47.31889772 12.33616638 50.78613281 C13.53106621 57.3487095 14.72107128 63.91216363 15.90927309 70.47595596 C17.25519637 77.90967282 18.60658471 85.34239273 19.95844376 92.77503204 C22.27232998 105.49756889 24.58208358 118.22084908 26.88737488 130.94494629 C27.07931427 132.00435425 27.27125366 133.06376221 27.4690094 134.15527344 C27.65111528 135.1633606 27.83322117 136.17144775 28.02084541 137.21008301 C28.38702053 139.22290823 28.75803511 141.23485812 29.13349724 143.24597168 C29.31329187 144.2131311 29.49308651 145.18029053 29.67832947 146.17675781 C29.83820815 147.0278009 29.99808683 147.87884399 30.16281033 148.75567627 C31.08819925 154.3860012 31.49971993 158.44233186 28.75 163.5625 C22.8759203 169.57249162 11.0580149 169.95341925 3.13671875 171.31640625 C2.05813095 171.50655304 0.97954315 171.69669983 -0.13172913 171.89260864 C-2.45445026 172.30173786 -4.77755816 172.70867628 -7.10101318 173.11361694 C-13.43265872 174.2178555 -19.76107927 175.34032515 -26.08984375 176.4609375 C-27.38710388 176.69026474 -28.68436401 176.91959198 -30.02093506 177.15586853 C-41.24223866 179.14327984 -52.44989018 181.19964314 -63.65304565 183.28665161 C-66.83946512 183.8800214 -70.02624102 184.47143892 -73.21313477 185.06225586 C-83.13052263 186.90116194 -93.04765933 188.74135806 -102.96307945 190.59084606 C-112.23112468 192.31953695 -121.50035024 194.04168101 -130.77132225 195.75461102 C-135.42403486 196.61454161 -140.07609575 197.47770113 -144.72674561 198.34872437 C-149.12910085 199.173185 -153.53295789 199.98910414 -157.93803787 200.79887581 C-159.57183818 201.10075184 -161.20507731 201.40568377 -162.83768845 201.71392632 C-184.41256439 205.78246605 -184.41256439 205.78246605 -190.875 202.375 C-197.44194585 195.75327254 -197.63625878 182.46771634 -199.22729492 173.58813477 C-199.6276881 171.36004138 -200.03897934 169.13414043 -200.45117188 166.90820312 C-200.71158849 165.47407639 -200.97137679 164.03983539 -201.23046875 162.60546875 C-201.4627417 161.32438232 -201.69501465 160.0432959 -201.93432617 158.72338867 C-202.39555351 155.48226515 -202.53466943 152.45446821 -202.4375 149.1875 C-203.0975 149.1875 -203.7575 149.1875 -204.4375 149.1875 C-204.58445313 148.05441406 -204.73140625 146.92132813 -204.8828125 145.75390625 C-206.34877872 134.82445247 -208.13430014 123.97074658 -210.125 113.125 C-210.24830688 112.45146484 -210.37161377 111.77792969 -210.49865723 111.08398438 C-211.99405931 102.92463391 -213.51492402 94.77014945 -215.04627991 86.61747742 C-215.79091467 82.64299674 -216.52835269 78.6671974 -217.26480103 74.69119263 C-217.62676413 72.74741826 -217.99208178 70.80426524 -218.3609314 68.86178589 C-218.88163291 66.11895443 -219.39108304 63.37423348 -219.8984375 60.62890625 C-220.05438889 59.82280914 -220.21034027 59.01671204 -220.37101746 58.18618774 C-221.55229591 51.69529356 -222.82844679 44.45622496 -220.1875 38.25 C-215.72895402 34.90609051 -210.83453409 34.27267905 -205.4375 33.1875 C-204.20128906 32.90390625 -202.96507812 32.6203125 -201.69140625 32.328125 C-192.54631422 30.25024071 -183.34017302 28.65483758 -174.08345413 27.16396141 C-155.50318146 24.15569737 -136.98913638 20.78185944 -118.4765625 17.38671875 C-117.76449111 17.25614917 -117.05241972 17.12557958 -116.31877041 16.99105334 C-107.49139154 15.37205697 -98.6648841 13.74833989 -89.83872485 12.12270921 C-79.9999554 10.31067586 -70.16034097 8.50324021 -60.32074547 6.69569874 C-58.86075181 6.42748996 -57.40075844 6.15927956 -55.94076538 5.8910675 C-55.22811409 5.76015317 -54.51546281 5.62923884 -53.78121603 5.49435741 C-49.58119803 4.72271147 -45.38133328 3.95023823 -41.18161035 3.17698801 C-39.21178604 2.81433954 -37.241918 2.45192866 -35.27204895 2.08952332 C-32.88047586 1.64952721 -30.48897123 1.20915875 -28.09754944 0.76834106 C-27.03907303 0.57369766 -25.98059662 0.37905426 -24.89004517 0.17851257 C-23.51941894 -0.07389175 -23.51941894 -0.07389175 -22.12110329 -0.33139515 C-6.08192053 -3.20683082 -6.08192053 -3.20683082 0 0 Z M-23.484375 2.09375 C-24.5533754 2.29424454 -25.62237579 2.49473907 -26.72377014 2.7013092 C-29.02010801 3.13284127 -31.31583392 3.56764032 -33.61099243 4.00540161 C-37.21952943 4.69360854 -40.82957405 5.37330371 -44.44018555 6.05053711 C-49.36797753 6.97509288 -54.29524918 7.90234578 -59.22216797 8.83154297 C-68.94808522 10.66269966 -78.68067888 12.45676992 -88.41687012 14.23242188 C-91.19153429 14.73931903 -93.96540677 15.25039365 -96.73925781 15.76171875 C-98.43680389 16.07186136 -100.1343926 16.38177076 -101.83203125 16.69140625 C-102.57663101 16.82950211 -103.32123077 16.96759796 -104.08839417 17.10987854 C-108.52689361 17.91350042 -112.94948628 18.50749424 -117.43864441 18.95115662 C-120.33458662 19.29357094 -123.11281958 19.97419686 -125.9375 20.6875 C-129.61607127 21.57308197 -133.16833676 22.35492677 -136.9375 22.6875 C-140.27177476 22.98518898 -143.37157513 23.61978293 -146.6171875 24.43359375 C-157.66677415 27.02939426 -168.88371596 28.8082307 -180.0625 30.75 C-183.49990525 31.35055427 -186.93713879 31.9520841 -190.37435913 32.55369568 C-192.49906778 32.92520482 -194.62391583 33.29591798 -196.74893188 33.66566467 C-198.69072656 34.00380309 -200.63166134 34.34692617 -202.57159424 34.69558716 C-204.55740542 35.03643787 -206.54945306 35.34211203 -208.54510498 35.61959839 C-209.53617249 35.76696442 -210.52723999 35.91433044 -211.54833984 36.06616211 C-212.43983734 36.18680527 -213.33133484 36.30744843 -214.24984741 36.43174744 C-216.56382599 36.99450082 -216.56382599 36.99450082 -217.72911072 38.99803162 C-219.88178657 45.6514577 -218.14572636 53.05005918 -216.86328125 59.7421875 C-216.69757126 60.64204376 -216.53186127 61.54190002 -216.36112976 62.46902466 C-215.83157395 65.33496696 -215.29105692 68.19870924 -214.75 71.0625 C-214.40616452 72.91262369 -214.06306098 74.76288356 -213.72070312 76.61328125 C-212.44565938 83.49036649 -211.15545513 90.36460017 -209.86447144 97.2387085 C-207.3801572 110.48516846 -204.97696045 123.74342357 -202.66158104 137.02031326 C-201.82947188 141.78305574 -200.9895532 146.54442887 -200.14969921 151.30581093 C-199.43185369 155.37985101 -198.71987633 159.45477675 -198.01879883 163.53173828 C-197.32587347 167.55932541 -196.61832317 171.58409549 -195.90068245 175.6073494 C-195.6334492 177.12062678 -195.37149726 178.63484743 -195.11514091 180.15000534 C-194.75923725 182.24906168 -194.38467432 184.3439845 -194.00561523 186.43896484 C-193.7986351 187.62549652 -193.59165497 188.8120282 -193.37840271 190.03451538 C-192.30633371 193.62704097 -191.17859622 195.62812903 -188.4375 198.1875 C-185.96420091 198.64358611 -185.96420091 198.64358611 -183.33642578 198.11328125 C-182.3640094 197.97615723 -181.39159302 197.8390332 -180.38970947 197.69775391 C-179.41548035 197.52937012 -178.44125122 197.36098633 -177.4375 197.1875 C-176.57493591 197.05134277 -175.71237183 196.91518555 -174.82366943 196.77490234 C-172.22611769 196.34447203 -169.64136304 195.86640512 -167.0546875 195.375 C-166.11497101 195.20121826 -165.17525452 195.02743652 -164.20706177 194.84838867 C-161.24130977 194.29946405 -158.27682641 193.74406741 -155.3125 193.1875 C-152.34092408 192.63156828 -149.36909004 192.07717634 -146.39651489 191.52661133 C-144.55823967 191.18596553 -142.72052805 190.84225791 -140.8835144 190.49487305 C-136.01175791 189.59020705 -131.18216779 188.88433075 -126.24588013 188.44018555 C-124.34060413 188.2720248 -124.34060413 188.2720248 -122.4375 187.1875 C-121.06644989 187.00829635 -119.69020119 186.86760864 -118.3125 186.75 C-114.62353475 186.3740545 -111.16382187 185.6770716 -107.57421875 184.71972656 C-100.56335594 182.97341933 -93.33905003 181.99429717 -86.2109375 180.84423828 C-76.91535076 179.33934292 -67.66526187 177.68942154 -58.4375 175.8125 C-49.17658743 173.92913846 -39.90786855 172.09758567 -30.62231445 170.34002686 C-29.22714897 170.07541405 -27.83228138 169.80922483 -26.43774414 169.5413208 C-19.46273691 168.20259123 -12.58352455 166.93117394 -5.48608398 166.50488281 C-3.15132745 166.14316389 -1.53947043 165.24496415 0.5625 164.1875 C2.7890625 163.74853516 2.7890625 163.74853516 5.1875 163.4765625 C6.05890625 163.36570313 6.9303125 163.25484375 7.828125 163.140625 C9.65013375 162.92198395 11.47308215 162.71103513 13.296875 162.5078125 C17.00524603 162.02506598 19.90809748 161.55560142 23.1875 159.7109375 C27.26902432 152.22041276 23.79632083 141.74838715 22.25 133.875 C22.03666016 132.74126953 21.82332031 131.60753906 21.60351562 130.43945312 C20.51836565 124.75456295 19.3283626 119.1116994 17.9921875 113.48046875 C16.69337693 107.9493344 15.75371846 102.44085916 15 96.8125 C14.12274725 90.2724603 14.12274725 90.2724603 12.59375 83.86328125 C11.10727369 78.56489409 10.41443515 73.18989738 9.625 67.75 C8.2520762 58.56412277 6.74752642 49.44435417 4.96875 40.328125 C4.49000687 37.80551699 4.04076384 35.27842203 3.59375 32.75 C1.23827349 15.96091589 1.23827349 15.96091589 -4.4375 0.1875 C-11.02346749 -0.04958706 -17.02728442 0.84557483 -23.484375 2.09375 Z " fill="#090909" transform="translate(223.4375,26.8125)"/>
<path d="M0 0 C-1.66703896 2.98312235 -3.45862294 5.6103609 -5.6875 8.1875 C-8.2117018 10.65062051 -8.2117018 10.65062051 -8 13 C-8.99 13 -9.98 13 -11 13 C-11 13.66 -11 14.32 -11 15 C-11.99 15 -12.98 15 -14 15 C-14.20625 15.61875 -14.4125 16.2375 -14.625 16.875 C-16.54775888 19.84653645 -18.66594527 20.13024659 -22 21 C-22 21.66 -22 22.32 -22 23 C-23.6544188 24.36003823 -25.37596045 25.63901205 -27.125 26.875 C-28.12660156 27.58398438 -29.12820312 28.29296875 -30.16015625 29.0234375 C-31.09730469 29.67570312 -32.03445312 30.32796875 -33 31 C-33.65871094 31.46664062 -34.31742188 31.93328125 -34.99609375 32.4140625 C-38.72616906 35 -38.72616906 35 -41 35 C-41.20625 35.556875 -41.4125 36.11375 -41.625 36.6875 C-43.5175586 39.87043946 -46.11544791 41.71639626 -49 44 C-49.66 44.66 -50.32 45.32 -51 46 C-51.66 45.67 -52.32 45.34 -53 45 C-53 44.01 -53 43.02 -53 42 C-53.66 41.01 -54.32 40.02 -55 39 C-57.81570551 29.87711416 -60.51915308 19.60433199 -60 10 C-54.79534453 8.08210258 -49.57710209 7.0492481 -44.140625 6.0546875 C-42.72399567 5.7925798 -42.72399567 5.7925798 -41.27874756 5.525177 C-39.28554045 5.15818691 -37.29189702 4.79355964 -35.29785156 4.43115234 C-32.27222951 3.8790563 -29.24944977 3.31294667 -26.2265625 2.74609375 C-24.28140814 2.38976064 -22.33610017 2.03426491 -20.390625 1.6796875 C-19.49861389 1.51097137 -18.60660278 1.34225525 -17.68756104 1.16842651 C-11.7365509 0.10576105 -6.04052295 -0.195753 0 0 Z " fill="#313131" transform="translate(80,67)"/>
<path d="M0 0 C2.62804716 6.241612 4.23591655 11.29225035 2 18 C0.53091759 19.46908241 -0.97483774 20.90172491 -2.5 22.3125 C-4.8947734 24.88688141 -5.95985375 26.69044374 -7 30 C-8.79275866 26.88089144 -9.34290718 24.32317572 -9.625 20.75 C-9.69976562 19.85796875 -9.77453125 18.9659375 -9.8515625 18.046875 C-9.90054688 17.37140625 -9.94953125 16.6959375 -10 16 C-11.3984375 16.23307292 -12.796875 16.46614583 -14.1953125 16.69921875 C-15.59040039 16.9317334 -15.59040039 16.9317334 -17.01367188 17.16894531 C-18.5537793 17.42562988 -18.5537793 17.42562988 -20.125 17.6875 C-29.10302734 19.18383789 -29.10302734 19.18383789 -38.08105469 20.68017578 C-39.11672073 20.85278679 -39.11672073 20.85278679 -40.17330933 21.02888489 C-42.93713379 21.4895223 -45.70095825 21.95015971 -48.46478271 22.41079712 C-49.13640442 22.52273407 -49.80802612 22.63467102 -50.5 22.75 C-57.25 23.875 -57.25 23.875 -64 25 C-64.66 23.68 -65.32 22.36 -66 21 C-65.4225 20.79375 -64.845 20.5875 -64.25 20.375 C-61.11651726 18.46009388 -59.77885413 16.17652523 -58 13 C-58 11.68 -58 10.36 -58 9 C-51.02752133 7.70832168 -44.05306414 6.4277695 -37.07714844 5.15478516 C-34.70624003 4.72079824 -32.33578908 4.28430411 -29.96582031 3.84521484 C-26.55131496 3.21305831 -23.13524424 2.59005606 -19.71875 1.96875 C-18.66635132 1.77188599 -17.61395264 1.57502197 -16.52966309 1.37219238 C-10.91972973 0.36179448 -5.7000493 -0.21464621 0 0 Z " fill="#A7A7A7" transform="translate(219,27)"/>
<path d="M0 0 C0 1.32 0 2.64 0 4 C-0.66 4 -1.32 4 -2 4 C-3.32806027 5.41685043 -3.32806027 5.41685043 -4.5625 7.25 C-4.99691406 7.85328125 -5.43132812 8.4565625 -5.87890625 9.078125 C-7.03707408 11.06355557 -7.49092681 12.77406954 -8 15 C-21.21298036 17.6875323 -34.43754607 20.3131078 -47.6875 22.8125 C-49.39546753 23.14060669 -49.39546753 23.14060669 -51.13793945 23.4753418 C-52.21003662 23.67554932 -53.28213379 23.87575684 -54.38671875 24.08203125 C-55.32733154 24.25968018 -56.26794434 24.4373291 -57.23706055 24.62036133 C-60.22186274 25.03048481 -62.99151651 25.18798092 -66 25 C-68.78005834 22.74589864 -69.82497181 20.96339044 -70.46484375 17.44140625 C-70.72197293 14.95817238 -70.90313654 12.49423419 -71 10 C-69.35 9.67 -67.7 9.34 -66 9 C-65.87625 8.21625 -65.7525 7.4325 -65.625 6.625 C-65 4 -65 4 -63 2 C-61 2.0625 -61 2.0625 -59 3 C-58.27748245 4.64322567 -57.60562595 6.31019545 -57 8 C-45.70053597 7.4625317 -34.81016686 5.15706431 -23.75244141 2.93579102 C-21.32052536 2.44964693 -18.88694513 1.97259846 -16.453125 1.49609375 C-15.7227301 1.34611435 -14.99233521 1.19613495 -14.23980713 1.04161072 C-9.4111588 0.09907104 -4.9206421 -0.13253206 0 0 Z " fill="#A8A8A8" transform="translate(101,200)"/>
<path d="M0 0 C0 0.33 0 0.66 0 1 C-0.59498291 1.10529526 -1.18996582 1.21059052 -1.80297852 1.31907654 C-9.53597316 2.68820907 -17.26816518 4.06183355 -25 5.4375 C-26.25152863 5.66009491 -27.50305725 5.88268982 -28.79251099 6.11203003 C-48.87860201 9.68843846 -68.94025653 13.38240998 -88.97851562 17.21850586 C-90.40352135 17.48937515 -90.40352135 17.48937515 -91.85731506 17.76571655 C-93.60285733 18.09753519 -95.34789868 18.43200718 -97.0922699 18.76992798 C-101.72769539 19.64883024 -106.33279866 20.31547961 -111.0294342 20.77134705 C-113.91657965 21.10635455 -116.68482962 21.78909839 -119.5 22.5 C-123.17857127 23.38558197 -126.73083676 24.16742677 -130.5 24.5 C-133.83427476 24.79768898 -136.93407513 25.43228293 -140.1796875 26.24609375 C-151.22927415 28.84189426 -162.44621596 30.6207307 -173.625 32.5625 C-177.06240525 33.16305427 -180.49963879 33.7645841 -183.93685913 34.36619568 C-186.06156778 34.73770482 -188.18641583 35.10841798 -190.31143188 35.47816467 C-196.87991068 36.62198027 -203.44189595 37.79812459 -210 39 C-212.336721 46.01016301 -210.78542796 53.45970138 -209.42578125 60.5546875 C-209.17721626 61.90447189 -209.17721626 61.90447189 -208.92362976 63.28152466 C-208.39407395 66.14746696 -207.85355692 69.01120924 -207.3125 71.875 C-206.96866452 73.72512369 -206.62556098 75.57538356 -206.28320312 77.42578125 C-205.57299997 81.25682503 -204.85826098 85.08698287 -204.13989258 88.91650391 C-200.46005102 108.5379512 -196.8483166 128.17221741 -193.28726482 147.81556129 C-192.66904592 151.22548799 -192.04900702 154.63506369 -191.42504883 158.04394531 C-190.68863433 162.06748126 -189.9593002 166.09227097 -189.23046875 170.1171875 C-189.00554245 171.34098114 -188.78061615 172.56477478 -188.5488739 173.82565308 C-188.24273918 175.52626389 -188.24273918 175.52626389 -187.93041992 177.26123047 C-187.65992073 178.74790726 -187.65992073 178.74790726 -187.38395691 180.26461792 C-187.01602791 182.88581412 -186.92823846 185.35749562 -187 188 C-189.0460668 184.93089979 -189.50913306 183.19311799 -190.125 179.625 C-190.29257813 178.68914062 -190.46015625 177.75328125 -190.6328125 176.7890625 C-190.97990588 174.15262977 -191.06758274 171.65503612 -191 169 C-191.66 169 -192.32 169 -193 169 C-193.50838564 166.96040523 -194.00633886 164.91820862 -194.5 162.875 C-194.7784375 161.73804688 -195.056875 160.60109375 -195.34375 159.4296875 C-195.96453765 156.18533302 -196.12006768 153.29185543 -196 150 C-196.66 150 -197.32 150 -198 150 C-198.14695313 148.86691406 -198.29390625 147.73382813 -198.4453125 146.56640625 C-199.91127872 135.63695247 -201.69680014 124.78324658 -203.6875 113.9375 C-203.81080688 113.26396484 -203.93411377 112.59042969 -204.06115723 111.89648438 C-205.55655931 103.73713391 -207.07742402 95.58264945 -208.60877991 87.42997742 C-209.35341467 83.45549674 -210.09085269 79.4796974 -210.82730103 75.50369263 C-211.18926413 73.55991826 -211.55458178 71.61676524 -211.9234314 69.67428589 C-212.44413291 66.93145443 -212.95358304 64.18673348 -213.4609375 61.44140625 C-213.61688889 60.63530914 -213.77284027 59.82921204 -213.93351746 58.99868774 C-215.11479591 52.50779356 -216.39094679 45.26872496 -213.75 39.0625 C-209.29145402 35.71859051 -204.39703409 35.08517905 -199 34 C-197.76378906 33.71640625 -196.52757812 33.4328125 -195.25390625 33.140625 C-186.10881422 31.06274071 -176.90267302 29.46733758 -167.64595413 27.97646141 C-149.06568146 24.96819737 -130.55163638 21.59435944 -112.0390625 18.19921875 C-111.32699111 18.06864917 -110.61491972 17.93807958 -109.88127041 17.80355334 C-101.05389154 16.18455697 -92.2273841 14.56083989 -83.40122485 12.93520921 C-73.5624554 11.12317586 -63.72284097 9.31574021 -53.88324547 7.50819874 C-52.42325181 7.23998996 -50.96325844 6.97177956 -49.50326538 6.7035675 C-48.79061409 6.57265317 -48.07796281 6.44173884 -47.34371603 6.30685741 C-43.14369803 5.53521147 -38.94383328 4.76273823 -34.74411035 3.98948801 C-32.77428604 3.62683954 -30.804418 3.26442866 -28.83454895 2.90202332 C-26.44297586 2.46202721 -24.05147123 2.02165875 -21.66004944 1.58084106 C-20.60157303 1.38619766 -19.54309662 1.19155426 -18.45254517 0.99101257 C-17.08191894 0.73860825 -17.08191894 0.73860825 -15.68360329 0.48110485 C-14.7980142 0.32234025 -13.91242512 0.16357565 -13 0 C-11.4661947 -0.29169461 -11.4661947 -0.29169461 -9.90140343 -0.58928204 C-6.41643242 -1.08260888 -3.44807263 -0.62065307 0 0 Z " fill="#2C2C2C" transform="translate(217,26)"/>
<path d="M0 0 C16.1300813 -0.75609756 16.1300813 -0.75609756 23 4 C26.42209352 7.74991089 26.56739054 10.65633033 26.421875 15.58203125 C26 18 26 18 23.75 21.125 C21 23 21 23 17 23 C17 23.66 17 24.32 17 25 C17.598125 25.226875 18.19625 25.45375 18.8125 25.6875 C21.70715882 27.42429529 22.63035715 28.9183036 24 32 C24.56872801 37.21334006 23.9156441 40.62653385 21 45 C17.19021796 48.80978204 13.88763187 49.31796505 8.6875 49.5 C2.70108651 49.33523633 -1.84012376 47.98659503 -7 45 C-7 43.02 -7 41.04 -7 39 C-5.5410574 39.47730838 -4.08286504 39.95691042 -2.625 40.4375 C-1.81289062 40.70433594 -1.00078125 40.97117188 -0.1640625 41.24609375 C2 42 2 42 4 43 C9.54038298 43.55439448 9.54038298 43.55439448 14.4375 41.4375 C16.53567796 38.16434238 17 35.88582276 17 32 C15.77570579 29.00990148 15.77570579 29.00990148 13 27 C10.03634139 26.02229819 7.08587891 25.44178181 4 25 C4.33 23.35 4.66 21.7 5 20 C5.75925781 19.96261719 6.51851562 19.92523438 7.30078125 19.88671875 C8.29464844 19.82097656 9.28851563 19.75523437 10.3125 19.6875 C11.29863281 19.62949219 12.28476563 19.57148438 13.30078125 19.51171875 C16.27683762 18.94751704 17.27357045 18.45304131 19 16 C19.25265405 12.90498792 19.39935013 10.79870027 18 8 C14.414869 5.51129256 11.00160993 5.79626648 6.75 5.875 C5.48671875 5.89304687 4.2234375 5.91109375 2.921875 5.9296875 C1.95765625 5.95289062 0.9934375 5.97609375 0 6 C0 4.02 0 2.04 0 0 Z " fill="#4897C2" transform="translate(187,113)"/>
<path d="M0 0 C0.83273438 0.36351563 1.66546875 0.72703125 2.5234375 1.1015625 C7.8595331 3.58533072 13.23592181 6.34667357 17 11 C17.4375 13.875 17.4375 13.875 17 16 C13.51486274 14.71148094 10.59404973 13.17003972 7.5 11.125 C-5.70772993 3.17698553 -19.69532024 2.13676297 -34.5 5.5 C-36.33818587 5.98185455 -38.17377039 6.47464628 -40 7 C-40 5.35 -40 3.7 -40 2 C-38.29422658 1.34743544 -36.58523911 0.70326959 -34.875 0.0625 C-33.92367187 -0.29714844 -32.97234375 -0.65679687 -31.9921875 -1.02734375 C-21.7098237 -4.36978316 -9.89836511 -4.49925687 0 0 Z " fill="#49A946" transform="translate(114,92)"/>
<path d="M0 0 C3.22113864 1.07371288 5.39369402 2.29920745 8.125 4.375 C14.70868233 9.22311466 22.87872949 11.65852062 31 12 C31.88042969 12.03996094 32.76085937 12.07992187 33.66796875 12.12109375 C41.58913061 12.29897982 49.19641998 11.29290083 57 10 C57 11.32 57 12.64 57 14 C55.25093469 14.64836042 53.50070781 15.29358784 51.75 15.9375 C50.77546875 16.29714844 49.8009375 16.65679687 48.796875 17.02734375 C38.84046096 20.4898397 27.26751818 20.40841887 17.53125 16.2734375 C13.18601054 14.08740654 9.05224388 11.68934891 5 9 C3.96875 8.319375 2.9375 7.63875 1.875 6.9375 C0 5 0 5 -0.3125 2.25 C-0.209375 1.5075 -0.10625 0.765 0 0 Z " fill="#49A946" transform="translate(67,136)"/>
<path d="M0 0 C-0.1119055 7.04258626 -0.1119055 7.04258626 -2.39501953 9.50390625 C-4.23204837 10.80075206 -6.09184179 11.91739011 -8.0625 13 C-8.72572266 13.39316406 -9.38894531 13.78632813 -10.07226562 14.19140625 C-11.70066924 15.15204723 -13.34858934 16.07947174 -15 17 C-13.7044983 20.78836104 -12.223985 23.0279982 -9.375 25.8125 C-6.67554942 28.74668542 -5.52686024 30.47270711 -5.5625 34.5 C-5.706875 35.655 -5.85125 36.81 -6 38 C-6.99 38 -7.98 38 -9 38 C-14 32.65116279 -14 32.65116279 -14 30 C-14.66 30 -15.32 30 -16 30 C-16.66 28.35 -17.32 26.7 -18 25 C-18.66 25 -19.32 25 -20 25 C-23.97067336 20.12174416 -23.97067336 20.12174416 -24.0625 16.609375 C-22.43480432 12.61194591 -19.40280992 11.13932988 -15.8125 8.9375 C-14.8215332 8.30618164 -14.8215332 8.30618164 -13.81054688 7.66210938 C-12.50390297 6.83013966 -11.19291371 6.00495091 -9.87744141 5.18701172 C-8.0989166 4.06253999 -6.36785461 2.8870525 -4.63671875 1.69140625 C-2 0 -2 0 0 0 Z " fill="#49AA46" transform="translate(182,115)"/>
<path d="M0 0 C0.66 0 1.32 0 2 0 C3.84847311 2.1729233 5.5921349 4.35402668 7.3125 6.625 C8.26605123 7.86785997 9.22047237 9.11005302 10.17578125 10.3515625 C10.64064941 10.96547852 11.10551758 11.57939453 11.58447266 12.21191406 C12.97068646 14.01061209 12.97068646 14.01061209 14.50537109 15.62402344 C17.97978918 19.37346459 17.97978918 19.37346459 18.0859375 22.6640625 C16.71775459 25.60713222 15.34346638 26.61700124 12.625 28.375 C11.73039062 28.96023437 10.83578125 29.54546875 9.9140625 30.1484375 C8.95242187 30.75945312 7.99078125 31.37046875 7 32 C5.99710938 32.67289063 4.99421875 33.34578125 3.9609375 34.0390625 C-1.68501362 37.77820163 -1.68501362 37.77820163 -4 39 C-4.66 38.67 -5.32 38.34 -6 38 C-5.8880945 31.90488032 -5.8880945 31.90488032 -3.60498047 29.57861328 C-1.76371272 28.2945646 0.10575816 27.16233046 2.0625 26.0625 C2.72572266 25.66482422 3.38894531 25.26714844 4.07226562 24.85742188 C5.70250042 23.88397232 7.3497184 22.93906346 9 22 C7.70661042 18.21128304 6.24295851 16.01173782 3.375 13.25 C0.49855874 10.12938878 -0.47104802 8.26730812 -0.4375 4 C-0.32685983 2.66328616 -0.19355665 1.32724563 0 0 Z " fill="#49AA46" transform="translate(135,108)"/>
<path d="M0 0 C1 2 1 2 0.4765625 5.34765625 C-1.30770605 9.76112476 -3.59820788 11.2821337 -7.625 13.4375 C-8.23601563 13.78748047 -8.84703125 14.13746094 -9.4765625 14.49804688 C-10.97333996 15.35167777 -12.48527596 16.17863556 -14 17 C-12.48040003 20.5055322 -10.35620064 22.92266548 -7.8125 25.75 C-4.09033938 30.27024551 -4.09033938 30.27024551 -3.69921875 33.4296875 C-4 35.625 -4 35.625 -5 39 C-9.40147674 35.8091298 -12.43962104 32.16131644 -15.6875 27.875 C-19.15139479 23.27337306 -19.15139479 23.27337306 -23 19 C-22.93188477 16.59692383 -22.93188477 16.59692383 -22 14 C-19.86694336 12.1472168 -19.86694336 12.1472168 -17.08984375 10.44921875 C-16.10048828 9.83369141 -15.11113281 9.21816406 -14.09179688 8.58398438 C-13.05087891 7.95814453 -12.00996094 7.33230469 -10.9375 6.6875 C-9.89271484 6.04232422 -8.84792969 5.39714844 -7.77148438 4.73242188 C-5.18929481 3.14066118 -2.5990094 1.56409254 0 0 Z " fill="#49AA46" transform="translate(68,97)"/>
<path d="M0 0 C5.06202025 1.66012492 7.36312817 6.12919239 10.28125 10.390625 C10.92191406 11.28845703 11.56257813 12.18628906 12.22265625 13.11132812 C16.90625 19.72727878 16.90625 19.72727878 16.90625 20.953125 C14.21875 21.265625 14.21875 21.265625 10.90625 20.953125 C6.44408255 17.38339104 3.23561528 12.56389547 -0.09375 7.953125 C-3.14165831 9.37043676 -5.70262901 11.09002715 -8.40625 13.078125 C-12.61607733 15.94972907 -15.07713846 16.59354349 -20.09375 15.953125 C-20.09375 14.963125 -20.09375 13.973125 -20.09375 12.953125 C-17.65985836 10.55775714 -14.76457492 8.7176442 -11.96875 6.765625 C-11.20820312 6.20681641 -10.44765625 5.64800781 -9.6640625 5.07226562 C-6.49531857 2.83502314 -3.71906188 1.14577159 0 0 Z " fill="#49AA46" transform="translate(124.09375,70.046875)"/>
<path d="M0 0 C1.94456508 3.3886378 2.63248442 6.60309592 3.32861328 10.43334961 C3.44594818 11.06963791 3.56328308 11.70592621 3.68417358 12.36149597 C4.06898066 14.4573845 4.44486142 16.55476067 4.8203125 18.65234375 C5.08608562 20.1144598 5.35227634 21.57650001 5.61886597 23.03846741 C6.1757558 26.10006788 6.72837015 29.16239974 7.27783203 32.2253418 C7.98123523 36.14510136 8.69398918 40.06308837 9.40980721 43.9805975 C9.96046672 46.99891148 10.50676304 50.01800223 11.05169296 53.03735542 C11.31284108 54.48201689 11.57519161 55.92646154 11.83877945 57.37067986 C12.20691279 59.39211999 12.56930551 61.41450821 12.93017578 63.43725586 C13.13732208 64.58657089 13.34446838 65.73588593 13.55789185 66.92002869 C13.95284701 69.67150603 14.08872285 72.22697549 14 75 C11.9539332 71.93089979 11.49086694 70.19311799 10.875 66.625 C10.62363281 65.22121094 10.62363281 65.22121094 10.3671875 63.7890625 C10.02009412 61.15262977 9.93241726 58.65503612 10 56 C9.34 56 8.68 56 8 56 C7.49161436 53.96040523 6.99366114 51.91820862 6.5 49.875 C6.2215625 48.73804688 5.943125 47.60109375 5.65625 46.4296875 C5.03546235 43.18533302 4.87993232 40.29185543 5 37 C4.34 37 3.68 37 3 37 C0.95471572 24.56873316 -0.48167015 12.61262195 0 0 Z " fill="#303030" transform="translate(16,139)"/>
<path d="M0 0 C0.66 0 1.32 0 2 0 C3.28788637 7.02810269 4.56892289 14.05742909 5.84521484 21.08764648 C6.28016225 23.47888421 6.71667442 25.86983787 7.15478516 28.26049805 C7.78439771 31.69766863 8.40836802 35.13582292 9.03125 38.57421875 C9.22811401 39.64210129 9.42497803 40.70998383 9.62780762 41.81022644 C9.89808777 43.31121635 9.89808777 43.31121635 10.17382812 44.8425293 C10.33371216 45.71967087 10.49359619 46.59681244 10.6583252 47.50053406 C11.00450687 50.03296925 11.06052602 52.4474083 11 55 C11.66 55 12.32 55 13 55 C13.88639389 57.65918166 14.17989025 59.48064641 14.31640625 62.23046875 C14.37924805 63.43413086 14.37924805 63.43413086 14.44335938 64.66210938 C14.50233398 65.91217773 14.50233398 65.91217773 14.5625 67.1875 C14.60568359 68.03248047 14.64886719 68.87746094 14.69335938 69.74804688 C14.79931518 71.83184433 14.9001502 73.91590103 15 76 C14.34 76 13.68 76 13 76 C9.80463382 59.15025396 6.65712529 42.29157177 3.59793091 25.41653442 C3.28343568 23.68487259 2.96742343 21.95348556 2.64987183 20.22238159 C2.20239383 17.78052094 1.76062656 15.33769247 1.3203125 12.89453125 C1.11918098 11.80584244 1.11918098 11.80584244 0.91398621 10.69515991 C0.27032265 7.08681851 -0.15079857 3.66690373 0 0 Z " fill="#101110" transform="translate(2,73)"/>
<path d="M0 0 C2.33214424 3.64397537 2.23164058 6.75325612 2 11 C0.79988374 14.60034878 -0.73060364 15.75080837 -3.5 18.3125 C-5.8947734 20.88688141 -6.95985375 22.69044374 -8 26 C-9.67110042 23.03821227 -10.32682752 20.62928808 -10.625 17.25 C-10.69976562 16.45078125 -10.77453125 15.6515625 -10.8515625 14.828125 C-10.90054688 14.22484375 -10.94953125 13.6215625 -11 13 C-10.01 13 -9.02 13 -8 13 C-6.25 11.75 -6.25 11.75 -5 10 C-5 9.01 -5 8.02 -5 7 C-3 5 -3 5 -1 3 C-0.67 2.01 -0.34 1.02 0 0 Z " fill="#A0A0A0" transform="translate(220,31)"/>
<path d="M0 0 C0 1.32 0 2.64 0 4 C-0.66 4 -1.32 4 -2 4 C-3.32806027 5.41685043 -3.32806027 5.41685043 -4.5625 7.25 C-4.99691406 7.85328125 -5.43132812 8.4565625 -5.87890625 9.078125 C-7.03255742 11.05581272 -7.55972779 12.76401078 -8 15 C-12.26616316 16.13764351 -15.56486311 17 -20 17 C-18.8153222 14.63064441 -17.77045643 14.09673622 -15.5625 12.6875 C-12.43106563 10.4967846 -10.7030035 8.91673381 -10 5 C-10.76603959 2.7142289 -10.76603959 2.7142289 -12 1 C-8.0186217 -0.3271261 -4.14954773 -0.06915913 0 0 Z " fill="#A0A0A0" transform="translate(101,200)"/>
<path d="M0 0 C1.98 0 3.96 0 6 0 C6 5.61 6 11.22 6 17 C4.68 16.67 3.36 16.34 2 16 C-0.54974918 11.48085499 -1.51343702 6.13437024 -1 1 C-0.67 0.67 -0.34 0.34 0 0 Z " fill="#49AA46" transform="translate(85,157)"/>
<path d="M0 0 C2.125 0.375 2.125 0.375 4 1 C4.33 2.65 4.66 4.3 5 6 C4.01 5.67 3.02 5.34 2 5 C1.67 6.32 1.34 7.64 1 9 C0.34 9 -0.32 9 -1 9 C-1.33 9.66 -1.66 10.32 -2 11 C-2.66 11 -3.32 11 -4 11 C-3.67 12.32 -3.34 13.64 -3 15 C-4.32 15.33 -5.64 15.66 -7 16 C-7.33 13.36 -7.66 10.72 -8 8 C-6.35 7.67 -4.7 7.34 -3 7 C-2.814375 5.824375 -2.814375 5.824375 -2.625 4.625 C-2 2 -2 2 0 0 Z " fill="#AFAFAF" transform="translate(38,202)"/>
<path d="M0 0 C0.66 0 1.32 0 2 0 C2.86136287 4.58858998 3.71562172 9.17842609 4.56347656 13.76953125 C4.85256773 15.32945944 5.14355802 16.88903697 5.43652344 18.44824219 C5.85858344 20.69635772 6.27367731 22.94566796 6.6875 25.1953125 C6.81874268 25.8861795 6.94998535 26.57704651 7.08520508 27.28884888 C7.80487881 31.24433935 8.13121167 34.98164262 8 39 C5.49821884 36.49821884 5.405502 34.95704331 4.74609375 31.50390625 C4.42415039 29.82844727 4.42415039 29.82844727 4.09570312 28.11914062 C3.87849609 26.94544922 3.66128906 25.77175781 3.4375 24.5625 C3.10588867 22.85416992 3.10588867 22.85416992 2.76757812 21.11132812 C1.43977692 14.08721965 0.49182357 7.13189296 0 0 Z " fill="#020202" transform="translate(2,73)"/>
<path d="M0 0 C0.33 0.66 0.66 1.32 1 2 C-2.56430755 5.14985318 -5.40693504 7.5140084 -10 9 C-10 9.66 -10 10.32 -10 11 C-11.65 11.66 -13.3 12.32 -15 13 C-13.33248852 9.05860922 -10.77289351 6.2107188 -8 3 C-9.32 2.34 -10.64 1.68 -12 1 C-7.93631321 0.22596442 -4.13574827 -0.0984702 0 0 Z M-17 13 C-15 14 -15 14 -15 14 Z " fill="#3B3B3A" transform="translate(87,65)"/>
<path d="M0 0 C-13.44171839 4.4022162 -25.95403967 6.33030553 -40 7 C-36.59553747 4.73035831 -33.56844964 4.1614514 -29.62890625 3.45703125 C-28.9101683 3.3243132 -28.19143036 3.19159515 -27.45091248 3.05485535 C-25.93267654 2.77663034 -24.41377827 2.50199891 -22.89428711 2.23071289 C-20.57246264 1.81428683 -18.25408977 1.38154645 -15.93554688 0.94726562 C-14.45851346 0.67869498 -12.98130503 0.41108468 -11.50390625 0.14453125 C-10.81212784 0.0144014 -10.12034943 -0.11572845 -9.40760803 -0.24980164 C-6.00477503 -0.84462922 -3.28293628 -1.2255388 0 0 Z " fill="#171717" transform="translate(93,48)"/>
<path d="M0 0 C2.31 0 4.62 0 7 0 C6.67 2.97 6.34 5.94 6 9 C4.33388095 9.042721 2.66617115 9.04063832 1 9 C0 8 0 8 -0.09765625 6.15234375 C-0.06510417 4.1015625 -0.03255208 2.05078125 0 0 Z " fill="#49A846" transform="translate(75,110)"/>
<path d="M0 0 C0.99 0.66 1.98 1.32 3 2 C3 4 3 4 1 6.125 C0.34 6.74375 -0.32 7.3625 -1 8 C-0.67 8.99 -0.34 9.98 0 11 C-1.98 11.33 -3.96 11.66 -6 12 C-6.66 10.68 -7.32 9.36 -8 8 C-7.13375 7.690625 -7.13375 7.690625 -6.25 7.375 C-3.18589456 5.50249112 -1.84460032 3.03041481 0 0 Z M3 1 C5 2 5 2 5 2 Z " fill="#B0B0B0" transform="translate(161,40)"/>
<path d="M0 0 C0 0.33 0 0.66 0 1 C-2.70726366 1.5064814 -5.41557124 2.005351 -8.125 2.5 C-9.26582031 2.71462891 -9.26582031 2.71462891 -10.4296875 2.93359375 C-14.68042914 3.70312456 -18.65859197 4.16644376 -23 4 C-23 3.34 -23 2.68 -23 2 C-20.48146969 1.4648501 -17.96129252 0.94670571 -15.4375 0.4375 C-14.73302734 0.28603516 -14.02855469 0.13457031 -13.30273438 -0.02148438 C-8.52811995 -0.96760613 -4.77928414 -0.94832051 0 0 Z " fill="#1E1F1E" transform="translate(217,26)"/>
<path d="M0 0 C0.33 0 0.66 0 1 0 C1.67396301 3.56115958 2.33787818 7.12412141 3 10.6875 C3.19078125 11.69490234 3.3815625 12.70230469 3.578125 13.74023438 C3.75859375 14.71669922 3.9390625 15.69316406 4.125 16.69921875 C4.29257812 17.59471436 4.46015625 18.49020996 4.6328125 19.4128418 C4.99717982 21.98012932 5.06528807 24.41092013 5 27 C2.9539332 23.93089979 2.49086694 22.19311799 1.875 18.625 C1.70742188 17.68914062 1.53984375 16.75328125 1.3671875 15.7890625 C1.02009412 13.15262977 0.93241726 10.65503612 1 8 C0.34 8 -0.32 8 -1 8 C-0.67 5.36 -0.34 2.72 0 0 Z " fill="#505050" transform="translate(25,187)"/>
<path d="M0 0 C-0.99 0.33 -1.98 0.66 -3 1 C-3 1.66 -3 2.32 -3 3 C-4.11375 3.12375 -5.2275 3.2475 -6.375 3.375 C-10.03103677 3.6465813 -10.03103677 3.6465813 -12 6 C-12.39764263 7.98821313 -12.73775349 9.98944339 -13 12 C-13.66 12 -14.32 12 -15 12 C-14.63370166 5.65082873 -14.63370166 5.65082873 -11.6875 2.625 C-7.62735473 0.17002844 -4.70549348 -0.13070815 0 0 Z " fill="#161616" transform="translate(17,61)"/>
<path d="M0 0 C0.66 0 1.32 0 2 0 C2.33895656 1.72807318 2.67091525 3.45751974 3 5.1875 C3.185625 6.15042969 3.37125 7.11335937 3.5625 8.10546875 C3.96877612 10.7934206 4.07933572 13.28771019 4 16 C3.34 15.67 2.68 15.34 2 15 C2 13.02 2 11.04 2 9 C1.34 9 0.68 9 0 9 C0 6.03 0 3.06 0 0 Z " fill="#050505" transform="translate(19,167)"/>
<path d="M0 0 C0.99 0.33 1.98 0.66 3 1 C2.00233891 3.49415272 1.31383315 4.78740335 -0.9375 6.3125 C-3 7 -3 7 -6 6 C-7.32 5.34 -8.64 4.68 -10 4 C-5.545 3.505 -5.545 3.505 -1 3 C-0.67 2.01 -0.34 1.02 0 0 Z " fill="#191919" transform="translate(247,184)"/>
<path d="M0 0 C7.26153846 -0.49230769 7.26153846 -0.49230769 11 2 C11.66 2.66 12.32 3.32 13 4 C12.67 4.66 12.34 5.32 12 6 C11.34 5.34 10.68 4.68 10 4 C9.34 4.66 8.68 5.32 8 6 C7.67 4.68 7.34 3.36 7 2 C4.69 1.67 2.38 1.34 0 1 C0 0.67 0 0.34 0 0 Z " fill="#0F0F0F" transform="translate(212,25)"/>
<path d="M0 0 C0.99 0.33 1.98 0.66 3 1 C0.34345343 4.73884332 -1.58110387 6.64978174 -6 8 C-4.75237172 4.15314615 -3.6129609 1.97070595 0 0 Z " fill="#343434" transform="translate(85,65)"/>
<path d="M0 0 C0 0.33 0 0.66 0 1 C-11.52164009 3.29612756 -11.52164009 3.29612756 -17 3 C-17 2.67 -17 2.34 -17 2 C-10.83354621 -0.52653315 -6.56407612 -1.31281522 0 0 Z " fill="#373737" transform="translate(102,47)"/>
<path d="M0 0 C0 0.33 0 0.66 0 1 C-3.63 1.33 -7.26 1.66 -11 2 C-11 1.34 -11 0.68 -11 0 C-7.18243176 -1.37432457 -3.92744671 -0.67975039 0 0 Z " fill="#252625" transform="translate(205,28)"/>
<path d="" fill="#000000" transform="translate(0,0)"/>
</svg>
