<?xml version="1.0" encoding="UTF-8"?>
<svg version="1.1" xmlns="http://www.w3.org/2000/svg" width="1200" height="1200">
<path d="M0 0 C8.68041472 5.02915581 13.31838227 16.4436087 18.21487427 24.92028809 C19.3337062 26.84905766 20.46575244 28.76951753 21.60131836 30.68847656 C27.84471291 41.26904656 27.84471291 41.26904656 30.48046875 46.81640625 C33.04388908 52.09389512 34.99971244 55.80040955 40.609375 58.1875 C44.90638935 59.13387238 48.77871144 59.14739511 52.9375 57.625 C57.38708144 54.74505618 60.49962587 50.55077503 63.63085938 46.34667969 C65.48297096 43.90626659 67.54399426 41.68355102 69.625 39.4375 C71.06324381 37.83400017 72.50075693 36.22984463 73.9375 34.625 C76.13606057 32.17291173 78.33675057 29.72329475 80.55078125 27.28515625 C82.28428932 25.3530466 83.98351857 23.40734662 85.66796875 21.43359375 C94.77675318 10.89545508 94.77675318 10.89545508 101.9375 9.625 C108.01569616 9.43765834 112.19045634 10.65073089 116.9375 14.625 C119.96586368 18.02503526 121.65199056 20.93893891 123.02124023 25.26977539 C123.37939316 26.37764908 123.73754608 27.48552277 124.10655212 28.62696838 C124.48260086 29.81354538 124.8586496 31.00012238 125.24609375 32.22265625 C125.86869265 34.09676258 126.49135619 35.97085018 127.11771488 37.84370327 C128.65567009 42.44284633 130.17873017 47.04530055 131.6315918 51.67211914 C132.44997011 54.27408832 133.29542597 56.8639878 134.17286682 59.44664001 C134.99606121 61.87138852 135.77975873 64.31000774 136.51792908 66.76197815 C138.23179275 71.66038052 139.36925691 74.7405763 144.00198364 77.35324097 C150.28337496 79.53865166 150.28337496 79.53865166 156.71614075 78.77412415 C158.95220751 77.61739171 160.90104746 76.37001107 162.9140625 74.859375 C163.6580127 74.30572266 164.40196289 73.75207031 165.16845703 73.18164062 C165.95849121 72.58544922 166.74852539 71.98925781 167.5625 71.375 C169.26035689 70.10929481 170.95827538 68.84367225 172.65625 67.578125 C173.52636719 66.92650391 174.39648438 66.27488281 175.29296875 65.60351562 C179.53758723 62.42788894 183.79896623 59.27515942 188.0625 56.125 C188.81869629 55.56264648 189.57489258 55.00029297 190.35400391 54.42089844 C207.87129399 41.46142276 207.87129399 41.46142276 216.9375 42.625 C222.40630949 44.44464005 225.57855234 46.91045483 228.9375 51.625 C232.67095069 62.61666837 233.48028245 75.14604992 235.15454102 86.59692383 C235.62971184 89.84470531 236.11219519 93.09134085 236.59570312 96.33789062 C236.90146406 98.4061876 237.20681783 100.47454482 237.51171875 102.54296875 C237.65542404 103.51163376 237.79912933 104.48029877 237.94718933 105.47831726 C238.14288261 106.82165886 238.14288261 106.82165886 238.3425293 108.19213867 C238.45783493 108.97819992 238.57314056 109.76426117 238.69194031 110.57414246 C238.9375 112.625 238.9375 112.625 238.9375 115.625 C239.7625 115.8725 240.5875 116.12 241.4375 116.375 C244.9375 117.625 244.9375 117.625 246.57666016 118.81542969 C248.73491232 120.31284701 250.3527957 121.08707706 252.9375 121.625 C257.56448744 120.4892417 261.60036752 118.313389 265.8125 116.125 C267.04380693 115.51764679 268.27691568 114.91393404 269.51171875 114.3137207 C272.7030638 112.75634989 275.87809276 111.16849952 279.0501709 109.57232666 C284.31840128 106.92798917 289.62128148 104.35893054 294.9375 101.8125 C296.48219971 101.03132813 296.48219971 101.03132813 298.05810547 100.234375 C305.07171525 96.86948372 311.15404549 95.56321256 318.9375 96.625 C323.41620656 98.78437638 326.11948188 101.55452939 328.9375 105.625 C330.31302962 109.75158886 330.11458961 113.59795191 330.10546875 117.921875 C330.10508102 118.85239685 330.1046933 119.7829187 330.10429382 120.74163818 C330.05646727 127.44858479 329.67245833 134.08383899 329.11328125 140.765625 C328.97125701 142.61582814 328.82998175 144.46608892 328.68945312 146.31640625 C328.47586016 149.12454739 328.24486166 151.92593016 327.9621582 154.72802734 C326.71134913 165.71474098 326.71134913 165.71474098 329.73974609 176.06054688 C333.04234485 179.43830518 336.00922765 181.58297917 340.89614868 181.65310669 C345.57759256 181.16372115 349.99113936 179.8149457 354.46289062 178.39361572 C358.62932733 177.09951703 362.86472781 176.07896641 367.09375 175.01171875 C368.81297437 174.56628001 370.5317246 174.11900735 372.25 173.66992188 C373.10335937 173.44747803 373.95671875 173.22503418 374.8359375 172.99584961 C376.58591733 172.5361843 378.33460568 172.07157677 380.08203125 171.60229492 C401.45150615 165.88200308 401.45150615 165.88200308 410.3125 170.3125 C415.5732178 174.94694187 417.38309185 178.88183769 417.95999146 185.70782471 C417.91732999 191.24108095 416.35464099 196.40419501 414.90234375 201.7109375 C414.58544083 202.93027985 414.2685379 204.14962219 413.94203186 205.40591431 C412.93552514 209.27499082 411.90786269 213.13790809 410.875 217 C409.83873285 220.88350991 408.80973176 224.76855648 407.79725647 228.65835571 C407.16875119 231.07254921 406.5270982 233.48336573 405.87107849 235.89022827 C405.58740921 236.97881134 405.30373993 238.06739441 405.01147461 239.18896484 C404.75530869 240.14475433 404.49914276 241.10054382 404.23521423 242.08529663 C403.8893943 245.0353741 404.39069327 246.14585508 405.9375 248.625 C406.26145752 249.40866943 406.58541504 250.19233887 406.91918945 250.99975586 C408.62449748 254.10579626 409.94963852 255.66549941 412.9375 257.625 C419.844755 258.95216269 427.18437444 257.80191228 434.125 257.1875 C436.99846793 256.97505518 439.87267206 256.77595733 442.74710083 256.57699585 C444.65072597 256.4450715 446.55411417 256.30968184 448.45724487 256.17080688 C454.96784602 255.70889597 461.46140472 255.41364014 467.98828125 255.33984375 C468.80378952 255.32071426 469.61929779 255.30158478 470.45951843 255.28187561 C476.86595295 255.26868176 480.95001871 256.72785877 485.6875 261.25 C488.58235638 265.06594705 489.66995479 268.87549685 489.9375 273.625 C488.48785156 281.72507895 484.49655573 289.07770985 480.875 296.375 C480.01208272 298.16349631 479.14917619 299.95199814 478.28746033 301.74107361 C475.83121638 306.83048796 473.2981263 311.8641758 470.6484375 316.85546875 C465.11551204 326.24061414 465.11551204 326.24061414 464.66015625 336.58203125 C466.17421931 339.59941934 467.81637304 342.01591426 469.9375 344.625 C469.9375 345.285 469.9375 345.945 469.9375 346.625 C471.15695312 346.77195312 472.37640625 346.91890625 473.6328125 347.0703125 C485.90574698 348.58918197 498.15009156 350.32165613 510.37640381 352.17694092 C512.07605461 352.43281409 513.77646155 352.68371671 515.4776001 352.92950439 C517.90407245 353.28148442 520.32701466 353.65219883 522.75 354.02734375 C523.47218719 354.12843948 524.19437439 354.22953522 524.93844604 354.33369446 C531.32492705 355.35877369 536.23687112 357.43208381 540.3125 362.6875 C542.87168613 367.31372108 543.60952027 371.39495492 542.9375 376.625 C540.64994912 382.86102709 536.59438089 388.12676929 532.625 393.375 C532.02123535 394.18412842 531.4174707 394.99325684 530.79541016 395.8269043 C528.84948819 398.43138064 526.8943613 401.02873511 524.9375 403.625 C522.88827758 406.35063638 520.83983743 409.07685636 518.79223633 411.80371094 C517.50143466 413.52095947 516.20840777 415.23653832 514.9128418 416.95019531 C513.75220782 418.48971198 512.59838466 420.0343976 511.45288086 421.58520508 C510.51764253 422.84409283 509.56361055 424.08955377 508.58032227 425.3112793 C506.52265974 428.00503422 505.91338951 429.30012137 506.16796875 432.73046875 C506.48378906 433.74753906 506.79960938 434.76460938 507.125 435.8125 C507.42792969 436.83730469 507.73085937 437.86210937 508.04296875 438.91796875 C509.02003431 443.04055878 509.02003431 443.04055878 511.94007874 445.64219666 C512.81973801 445.94323807 513.69939728 446.24427948 514.60571289 446.55444336 C515.60087418 446.90167953 516.59603546 447.24891571 517.62135315 447.60667419 C519.24931068 448.15521812 519.24931068 448.15521812 520.91015625 448.71484375 C522.0217662 449.10064102 523.13337616 449.48643829 524.27867126 449.88392639 C527.84871079 451.12127061 531.42390391 452.34278165 535 453.5625 C538.55030781 454.78077357 542.09935576 456.00246487 545.64634705 457.23036194 C547.85580164 457.99447713 550.06728085 458.75277053 552.28102112 459.50437927 C562.16643007 462.90945405 569.68658835 465.66896276 575.3125 474.875 C576.54819334 480.31205068 576.07485188 485.54081711 573.3984375 490.4453125 C570.38697761 494.67176867 566.49135733 498.06625895 562.6875 501.5625 C561.96175781 502.23990234 561.23601562 502.91730469 560.48828125 503.61523438 C556.32297778 507.4872589 552.08667945 511.26638749 547.79492188 514.99731445 C544.58634536 517.80903627 541.46631608 520.71462698 538.33984375 523.6171875 C535.89917142 525.8701158 533.53215701 527.90640764 530.79785156 529.8046875 C528.10461837 532.05570367 527.94040623 532.61207524 527.10888672 536.31005859 C527.07017128 542.10635097 527.36469345 546.91450247 531.39160156 551.29394531 C534.84798152 553.59926049 538.33103655 555.44492577 542.0625 557.25 C543.3803073 557.94436489 544.69466917 558.64530565 546.00561523 559.35253906 C548.67017641 560.7842107 551.34648211 562.18836958 554.03564453 563.57324219 C559.84044132 566.59005474 565.41604029 569.96890294 571 573.375 C571.94955566 573.93525879 572.89911133 574.49551758 573.87744141 575.07275391 C580.05251785 578.78823716 584.91706262 582.38509937 586.9375 589.625 C587.55962769 595.94996488 586.78509337 600.47786799 582.9375 605.625 C576.17466224 611.26225437 568.24738773 615.50929996 560.64221191 619.90237427 C558.71344234 621.0212062 556.79298247 622.15325244 554.87402344 623.28881836 C544.29345344 629.53221291 544.29345344 629.53221291 538.74609375 632.16796875 C533.46860488 634.73138908 529.76209045 636.68721244 527.375 642.296875 C526.42862762 646.59388935 526.41510489 650.46621144 527.9375 654.625 C530.81744382 659.07458144 535.01172497 662.18712587 539.21582031 665.31835938 C541.65623341 667.17047096 543.87894898 669.23149426 546.125 671.3125 C547.72849983 672.75074381 549.33265537 674.18825693 550.9375 675.625 C553.38958827 677.82356057 555.83920525 680.02425057 558.27734375 682.23828125 C560.2094534 683.97178932 562.15515338 685.67101857 564.12890625 687.35546875 C574.66704492 696.46425318 574.66704492 696.46425318 575.9375 703.625 C576.12484166 709.70319616 574.91176911 713.87795634 570.9375 718.625 C566.19665345 723.3505535 560.1418356 724.98227272 553.9609375 727.13671875 C552.79873688 727.55041214 551.63653625 727.96410553 550.43911743 728.39033508 C546.73344138 729.70695423 543.02310525 731.00984583 539.3125 732.3125 C536.80657112 733.19915234 534.30176849 734.08893799 531.796875 734.97851562 C514.91793336 740.96485555 514.91793336 740.96485555 509.9375 742.625 C508.59967109 745.46265269 508.59967109 745.46265269 507.625 748.875 C507.25761719 750.01453125 506.89023438 751.1540625 506.51171875 752.328125 C505.72476633 756.84640966 506.67158806 758.75277641 509.19604492 762.48632812 C510.82321736 764.77011591 512.49836564 767.01166871 514.1875 769.25 C515.45320519 770.94785689 516.71882775 772.64577538 517.984375 774.34375 C518.63599609 775.21386719 519.28761719 776.08398438 519.95898438 776.98046875 C523.13461106 781.22508723 526.28734058 785.48646623 529.4375 789.75 C529.99985352 790.50619629 530.56220703 791.26239258 531.14160156 792.04150391 C544.10107724 809.55879399 544.10107724 809.55879399 542.9375 818.625 C541.11785995 824.09380949 538.65204517 827.26605234 533.9375 830.625 C522.94583163 834.35845069 510.41645008 835.16778245 498.96557617 836.84204102 C495.71779469 837.31721184 492.47115915 837.79969519 489.22460938 838.28320312 C487.1563124 838.58896406 485.08795518 838.89431783 483.01953125 839.19921875 C482.05086624 839.34292404 481.08220123 839.48662933 480.08418274 839.63468933 C478.74084114 839.83038261 478.74084114 839.83038261 477.37036133 840.0300293 C476.58430008 840.14533493 475.79823883 840.26064056 474.98835754 840.37944031 C472.9375 840.625 472.9375 840.625 469.9375 840.625 C469.69 841.45 469.4425 842.275 469.1875 843.125 C467.9375 846.625 467.9375 846.625 466.74707031 848.26416016 C465.24965299 850.42241232 464.47542294 852.0402957 463.9375 854.625 C465.0732329 859.25188397 467.2483175 863.28835503 469.4375 867.5 C470.04542608 868.72771643 470.6498743 869.95716061 471.25097656 871.18823242 C472.49794422 873.73434135 473.75946974 876.27235449 475.03320312 878.80517578 C478.03442987 884.79484754 480.86104237 890.86375273 483.6875 896.9375 C484.19990234 898.00919434 484.71230469 899.08088867 485.24023438 900.18505859 C491.25977075 913.02276696 491.25977075 913.02276696 488.9375 920.1875 C487.16289501 924.99372184 484.22036068 927.8995432 479.9375 930.625 C476.00826738 931.93474421 472.26394621 931.80211479 468.16796875 931.79296875 C467.28513718 931.79258102 466.4023056 931.7921933 465.49272156 931.79179382 C458.85674167 931.74222409 452.28782033 931.3417124 445.67578125 930.80078125 C442.82541767 930.58733057 439.97485608 930.37668299 437.12426758 930.16625977 C435.18687785 930.01206507 433.25087652 929.83945867 431.31665039 929.6496582 C420.07114158 928.38270649 420.07114158 928.38270649 409.46630859 931.42724609 C406.08429184 934.73462698 403.97585975 937.6940866 403.91186523 942.58364868 C404.40067816 947.26558597 405.74742143 951.67822131 407.16888428 956.15039062 C408.46298297 960.31682733 409.48353359 964.55222781 410.55078125 968.78125 C410.99621999 970.50047437 411.44349265 972.2192246 411.89257812 973.9375 C412.2262439 975.21753906 412.2262439 975.21753906 412.56665039 976.5234375 C413.0263157 978.27341733 413.49092323 980.02210568 413.96020508 981.76953125 C419.68049692 1003.13900615 419.68049692 1003.13900615 415.25 1012 C410.61555813 1017.2607178 406.68066231 1019.07059185 399.85467529 1019.64749146 C394.32141905 1019.60482999 389.15830499 1018.04214099 383.8515625 1016.58984375 C382.63222015 1016.27294083 381.41287781 1015.9560379 380.15658569 1015.62953186 C376.28750918 1014.62302514 372.42459191 1013.59536269 368.5625 1012.5625 C364.67899009 1011.52623285 360.79394352 1010.49723176 356.90414429 1009.48475647 C354.48995079 1008.85625119 352.07913427 1008.2145982 349.67227173 1007.55857849 C348.58368866 1007.27490921 347.49510559 1006.99123993 346.37353516 1006.69897461 C345.41774567 1006.44280869 344.46195618 1006.18664276 343.47720337 1005.92271423 C340.52697261 1005.57687633 339.41619443 1006.07678052 336.9375 1007.625 C336.15383057 1007.9554834 335.37016113 1008.2859668 334.56274414 1008.62646484 C331.48808617 1010.3342263 329.89893895 1011.6721731 327.9375 1014.625 C326.61528069 1021.34364942 327.76057405 1028.49761339 328.375 1035.25 C328.65846573 1038.97036626 328.91924262 1042.6922951 329.18359375 1046.4140625 C329.28660294 1047.7943161 329.28660294 1047.7943161 329.39169312 1049.20245361 C329.871258 1055.85130674 330.15120942 1062.48253279 330.22265625 1069.1484375 C330.25135048 1070.44559189 330.25135048 1070.44559189 330.28062439 1071.76895142 C330.29175537 1077.5091942 329.48107954 1081.90019851 325.40234375 1086.26953125 C319.14695264 1091.05306563 314.77815559 1091.51735943 306.9375 1090.625 C302.33600864 1089.13955685 298.12305197 1087.05142417 293.8125 1084.875 C292.59909489 1084.29086602 291.38421748 1083.70978164 290.16796875 1083.1315918 C284.56565579 1080.45508113 279.01909126 1077.68468735 273.52200317 1074.79830933 C271.7831881 1073.89213067 270.03249795 1073.00885719 268.28173828 1072.12597656 C266.1052346 1071.02707895 263.94807662 1069.88869736 261.81591797 1068.70605469 C257.27357539 1066.438945 254.57857058 1065.11240508 249.59375 1066.66943359 C246.59547599 1068.18150958 243.79153333 1069.86185584 240.9375 1071.625 C240.2775 1071.625 239.6175 1071.625 238.9375 1071.625 C238.77894531 1072.89085937 238.62039063 1074.15671875 238.45703125 1075.4609375 C236.9822416 1087.08466562 235.41383882 1098.69652685 233.75888062 1110.29595947 C233.54607523 1111.79677196 233.33641548 1113.29803412 233.1300354 1114.79974365 C230.28315779 1135.45561048 230.28315779 1135.45561048 223.9375 1141.625 C219.06188191 1144.3440947 214.48218975 1145.58267033 208.9375 1144.625 C202.73870372 1142.27517786 197.49711791 1138.33687006 192.25 1134.375 C191.04126221 1133.47430786 191.04126221 1133.47430786 189.80810547 1132.55541992 C182.45087878 1127.05689815 175.15242488 1121.47843049 167.88012695 1115.86816406 C167.04570068 1115.22717773 166.21127441 1114.58619141 165.3515625 1113.92578125 C164.6188916 1113.36028564 163.8862207 1112.79479004 163.13134766 1112.2121582 C158.49241056 1108.57748802 158.49241056 1108.57748802 152.9296875 1107.953125 C151.90101563 1108.25734375 150.87234375 1108.5615625 149.8125 1108.875 C148.26175781 1109.31585937 148.26175781 1109.31585937 146.6796875 1109.765625 C144.7598481 1110.36728407 142.84616426 1110.98877858 140.9375 1111.625 C139.76094437 1113.90281108 139.76094437 1113.90281108 138.85620117 1116.76806641 C138.47537888 1117.86655914 138.09455658 1118.96505188 137.70219421 1120.09683228 C137.29902481 1121.29464325 136.89585541 1122.49245422 136.48046875 1123.7265625 C135.83029702 1125.59856398 135.18010669 1127.47055924 134.52885151 1129.34218407 C132.92519812 1133.96415072 131.34804207 1138.59522548 129.77026367 1143.22607422 C128.8857057 1145.81948033 127.99258554 1148.40966284 127.09089661 1150.99716187 C126.24312604 1153.43310318 125.40875529 1155.87376082 124.58964539 1158.31948853 C121.81346935 1166.26794768 118.98372421 1172.13501587 111.6875 1176.625 C105.76213305 1178.20509785 100.55970882 1178.0635729 95.125 1175.08203125 C90.89088585 1172.07658742 87.49788279 1168.18064353 84 1164.375 C83.32259766 1163.64925781 82.64519531 1162.92351562 81.94726562 1162.17578125 C78.0752411 1158.01047778 74.29611251 1153.77417945 70.56518555 1149.48242188 C67.75346373 1146.27384536 64.84787302 1143.15381608 61.9453125 1140.02734375 C59.6923842 1137.58667142 57.65609236 1135.21965701 55.7578125 1132.48535156 C53.50679633 1129.79211837 52.95042476 1129.62790623 49.25244141 1128.79638672 C43.45614903 1128.75767128 38.64799753 1129.05219345 34.26855469 1133.07910156 C31.96323951 1136.53548152 30.11757423 1140.01853655 28.3125 1143.75 C27.61813511 1145.0678073 26.91719435 1146.38216917 26.20996094 1147.69311523 C24.7782893 1150.35767641 23.37413042 1153.03398211 21.98925781 1155.72314453 C18.97244526 1161.52794132 15.59359706 1167.10354029 12.1875 1172.6875 C11.62724121 1173.63705566 11.06698242 1174.58661133 10.48974609 1175.56494141 C6.77426284 1181.74001785 3.17740063 1186.60456262 -4.0625 1188.625 C-10.38746488 1189.24712769 -14.91536799 1188.47259337 -20.0625 1184.625 C-25.69975437 1177.86216224 -29.94679996 1169.93488773 -34.33987427 1162.32971191 C-35.4587062 1160.40094234 -36.59075244 1158.48048247 -37.72631836 1156.56152344 C-43.96971291 1145.98095344 -43.96971291 1145.98095344 -46.60546875 1140.43359375 C-49.16888908 1135.15610488 -51.12471244 1131.44959045 -56.734375 1129.0625 C-61.03138935 1128.11612762 -64.90371144 1128.10260489 -69.0625 1129.625 C-73.51208144 1132.50494382 -76.62462587 1136.69922497 -79.75585938 1140.90332031 C-81.60797096 1143.34373341 -83.66899426 1145.56644898 -85.75 1147.8125 C-87.18824381 1149.41599983 -88.62575693 1151.02015537 -90.0625 1152.625 C-92.26106057 1155.07708827 -94.46175057 1157.52670525 -96.67578125 1159.96484375 C-98.40928932 1161.8969534 -100.10851857 1163.84265338 -101.79296875 1165.81640625 C-110.90175318 1176.35454492 -110.90175318 1176.35454492 -118.0625 1177.625 C-124.14069616 1177.81234166 -128.31545634 1176.59926911 -133.0625 1172.625 C-136.09086368 1169.22496474 -137.77699056 1166.31106109 -139.14624023 1161.98022461 C-139.50439316 1160.87235092 -139.86254608 1159.76447723 -140.23155212 1158.62303162 C-140.60760086 1157.43645462 -140.9836496 1156.24987762 -141.37109375 1155.02734375 C-141.99369265 1153.15323742 -142.61635619 1151.27914982 -143.24271488 1149.40629673 C-144.78067009 1144.80715367 -146.30373017 1140.20469945 -147.7565918 1135.57788086 C-148.57497011 1132.97591168 -149.42042597 1130.3860122 -150.29786682 1127.80335999 C-151.12106121 1125.37861148 -151.90475873 1122.93999226 -152.64292908 1120.48802185 C-154.35679275 1115.58961948 -155.49425691 1112.5094237 -160.12698364 1109.89675903 C-166.40837496 1107.71134834 -166.40837496 1107.71134834 -172.84114075 1108.47587585 C-175.07720751 1109.63260829 -177.02604746 1110.87998893 -179.0390625 1112.390625 C-180.15498779 1113.22110352 -180.15498779 1113.22110352 -181.29345703 1114.06835938 C-182.08349121 1114.66455078 -182.87352539 1115.26074219 -183.6875 1115.875 C-185.38535689 1117.14070519 -187.08327538 1118.40632775 -188.78125 1119.671875 C-189.65136719 1120.32349609 -190.52148438 1120.97511719 -191.41796875 1121.64648438 C-195.66258723 1124.82211106 -199.92396623 1127.97484058 -204.1875 1131.125 C-204.94369629 1131.68735352 -205.69989258 1132.24970703 -206.47900391 1132.82910156 C-223.99629399 1145.78857724 -223.99629399 1145.78857724 -233.0625 1144.625 C-238.53130949 1142.80535995 -241.70355234 1140.33954517 -245.0625 1135.625 C-248.79595069 1124.63333163 -249.60528245 1112.10395008 -251.27954102 1100.65307617 C-251.75471184 1097.40529469 -252.23719519 1094.15865915 -252.72070312 1090.91210938 C-253.02646406 1088.8438124 -253.33181783 1086.77545518 -253.63671875 1084.70703125 C-253.78042404 1083.73836624 -253.92412933 1082.76970123 -254.07218933 1081.77168274 C-254.20265152 1080.87612167 -254.33311371 1079.98056061 -254.4675293 1079.05786133 C-254.58283493 1078.27180008 -254.69814056 1077.48573883 -254.81694031 1076.67585754 C-255.0625 1074.625 -255.0625 1074.625 -255.0625 1071.625 C-255.8875 1071.3775 -256.7125 1071.13 -257.5625 1070.875 C-261.0625 1069.625 -261.0625 1069.625 -262.70166016 1068.43457031 C-264.85991232 1066.93715299 -266.4777957 1066.16292294 -269.0625 1065.625 C-273.68948744 1066.7607583 -277.72536752 1068.936611 -281.9375 1071.125 C-283.16880693 1071.73235321 -284.40191568 1072.33606596 -285.63671875 1072.9362793 C-288.8280638 1074.49365011 -292.00309276 1076.08150048 -295.1751709 1077.67767334 C-300.44340128 1080.32201083 -305.74628148 1082.89106946 -311.0625 1085.4375 C-312.0922998 1085.95828125 -313.12209961 1086.4790625 -314.18310547 1087.015625 C-321.19671525 1090.38051628 -327.27904549 1091.68678744 -335.0625 1090.625 C-339.54120656 1088.46562362 -342.24448188 1085.69547061 -345.0625 1081.625 C-346.43802962 1077.49841114 -346.23958961 1073.65204809 -346.23046875 1069.328125 C-346.22988716 1067.93234222 -346.22988716 1067.93234222 -346.22929382 1066.50836182 C-346.18146727 1059.80141521 -345.79745833 1053.16616101 -345.23828125 1046.484375 C-345.09625701 1044.63417186 -344.95498175 1042.78391108 -344.81445312 1040.93359375 C-344.60086016 1038.12545261 -344.36986166 1035.32406984 -344.0871582 1032.52197266 C-342.83634913 1021.53525902 -342.83634913 1021.53525902 -345.86474609 1011.18945312 C-349.16734485 1007.81169482 -352.13422765 1005.66702083 -357.02114868 1005.59689331 C-361.70259256 1006.08627885 -366.11613936 1007.4350543 -370.58789062 1008.85638428 C-374.75432733 1010.15048297 -378.98972781 1011.17103359 -383.21875 1012.23828125 C-384.93797437 1012.68371999 -386.6567246 1013.13099265 -388.375 1013.58007812 C-389.65503906 1013.9137439 -389.65503906 1013.9137439 -390.9609375 1014.25415039 C-392.71091733 1014.7138157 -394.45960568 1015.17842323 -396.20703125 1015.64770508 C-417.57650615 1021.36799692 -417.57650615 1021.36799692 -426.4375 1016.9375 C-431.6982178 1012.30305813 -433.50809185 1008.36816231 -434.08499146 1001.54217529 C-434.04232999 996.00891905 -432.47964099 990.84580499 -431.02734375 985.5390625 C-430.71044083 984.31972015 -430.3935379 983.10037781 -430.06703186 981.84408569 C-429.06052514 977.97500918 -428.03286269 974.11209191 -427 970.25 C-425.96373285 966.36649009 -424.93473176 962.48144352 -423.92225647 958.59164429 C-423.29375119 956.17745079 -422.6520982 953.76663427 -421.99607849 951.35977173 C-421.57057457 949.72689713 -421.57057457 949.72689713 -421.13647461 948.06103516 C-420.88030869 947.10524567 -420.62414276 946.14945618 -420.36021423 945.16470337 C-420.0143943 942.2146259 -420.51569327 941.10414492 -422.0625 938.625 C-422.38645752 937.84133057 -422.71041504 937.05766113 -423.04418945 936.25024414 C-424.74949748 933.14420374 -426.07463852 931.58450059 -429.0625 929.625 C-435.969755 928.29783731 -443.30937444 929.44808772 -450.25 930.0625 C-453.12346793 930.27494482 -455.99767206 930.47404267 -458.87210083 930.67300415 C-460.77572597 930.8049285 -462.67911417 930.94031816 -464.58224487 931.07919312 C-471.09284602 931.54110403 -477.58640472 931.83635986 -484.11328125 931.91015625 C-485.33654366 931.93885048 -485.33654366 931.93885048 -486.58451843 931.96812439 C-492.99095295 931.98131824 -497.07501871 930.52214123 -501.8125 926 C-504.70863629 922.1823658 -505.79027508 918.37555554 -506.0625 913.625 C-504.70791113 905.7994677 -500.86624046 898.65702453 -497.36340332 891.61837769 C-496.41979876 889.71428072 -495.49244157 887.80302746 -494.56933594 885.88891602 C-491.77931071 880.11181526 -488.94866329 874.3693273 -485.9296875 868.70703125 C-481.13719547 860.18352902 -481.13719547 860.18352902 -480.85546875 850.80859375 C-482.3573111 847.78707243 -484.01204924 845.29009428 -486.0625 842.625 C-486.0625 841.965 -486.0625 841.305 -486.0625 840.625 C-487.28195312 840.47804688 -488.50140625 840.33109375 -489.7578125 840.1796875 C-502.03074698 838.66081803 -514.27509156 836.92834387 -526.50140381 835.07305908 C-528.20105461 834.81718591 -529.90146155 834.56628329 -531.6026001 834.32049561 C-534.02907245 833.96851558 -536.45201466 833.59780117 -538.875 833.22265625 C-539.59718719 833.12156052 -540.31937439 833.02046478 -541.06344604 832.91630554 C-547.44992705 831.89122631 -552.36187112 829.81791619 -556.4375 824.5625 C-558.99655569 819.93651471 -559.7350092 815.85483851 -559.0625 810.625 C-556.78149339 804.41942772 -552.76002714 799.16562209 -548.8125 793.9375 C-548.21203857 793.1316748 -547.61157715 792.32584961 -546.99291992 791.49560547 C-541.49439815 784.13837878 -535.91593049 776.83992488 -530.30566406 769.56762695 C-529.66467773 768.73320068 -529.02369141 767.89877441 -528.36328125 767.0390625 C-527.79778564 766.3063916 -527.23229004 765.5737207 -526.6496582 764.81884766 C-523.01498802 760.17991056 -523.01498802 760.17991056 -522.390625 754.6171875 C-522.69484375 753.58851563 -522.9990625 752.55984375 -523.3125 751.5 C-523.60640625 750.46617187 -523.9003125 749.43234375 -524.203125 748.3671875 C-524.80478407 746.4473481 -525.42627858 744.53366426 -526.0625 742.625 C-527.99298694 741.55796419 -527.99298694 741.55796419 -530.42358398 740.78735352 C-531.81654945 740.29653038 -531.81654945 740.29653038 -533.23765564 739.79579163 C-534.25106522 739.45196945 -535.26447479 739.10814728 -536.30859375 738.75390625 C-537.34887222 738.39030502 -538.3891507 738.0267038 -539.46095276 737.65208435 C-542.8035658 736.48613069 -546.15147163 735.33634235 -549.5 734.1875 C-552.8151966 733.03901342 -556.12921847 731.88721804 -559.44264221 730.73362732 C-561.50609009 730.01644339 -563.57075427 729.30274589 -565.63682556 728.59315491 C-570.29894251 726.98375967 -574.94684544 725.33788761 -579.55883789 723.58959961 C-580.73525597 723.14673866 -580.73525597 723.14673866 -581.93544006 722.69493103 C-586.45420621 720.42194942 -588.9007431 716.49391327 -591.5 712.3125 C-592.63690151 706.88063724 -592.18969594 701.69057226 -589.5234375 696.8046875 C-586.51197761 692.57823133 -582.61635733 689.18374105 -578.8125 685.6875 C-578.08675781 685.01009766 -577.36101563 684.33269531 -576.61328125 683.63476562 C-572.44797778 679.7627411 -568.21167945 675.98361251 -563.91992188 672.25268555 C-560.71134536 669.44096373 -557.59131608 666.53537302 -554.46484375 663.6328125 C-552.02417142 661.3798842 -549.65715701 659.34359236 -546.92285156 657.4453125 C-544.22961837 655.19429633 -544.06540623 654.63792476 -543.23388672 650.93994141 C-543.19517128 645.14364903 -543.48969345 640.33549753 -547.51660156 635.95605469 C-550.97298152 633.65073951 -554.45603655 631.80507423 -558.1875 630 C-559.5053073 629.30563511 -560.81966917 628.60469435 -562.13061523 627.89746094 C-564.79517641 626.4657893 -567.47148211 625.06163042 -570.16064453 623.67675781 C-575.96544132 620.65994526 -581.54104029 617.28109706 -587.125 613.875 C-588.07455566 613.31474121 -589.02411133 612.75448242 -590.00244141 612.17724609 C-596.17751785 608.46176284 -601.04206262 604.86490063 -603.0625 597.625 C-603.68462769 591.30003512 -602.91009337 586.77213201 -599.0625 581.625 C-592.29966224 575.98774563 -584.37238773 571.74070004 -576.76721191 567.34762573 C-574.83844234 566.2287938 -572.91798247 565.09674756 -570.99902344 563.96118164 C-560.41845344 557.71778709 -560.41845344 557.71778709 -554.87109375 555.08203125 C-549.59360488 552.51861092 -545.88709045 550.56278756 -543.5 544.953125 C-542.55362762 540.65611065 -542.54010489 536.78378856 -544.0625 532.625 C-546.94244382 528.17541856 -551.13672497 525.06287413 -555.34082031 521.93164062 C-557.78123341 520.07952904 -560.00394898 518.01850574 -562.25 515.9375 C-563.85349983 514.49925619 -565.45765537 513.06174307 -567.0625 511.625 C-569.51458827 509.42643943 -571.96420525 507.22574943 -574.40234375 505.01171875 C-576.3344534 503.27821068 -578.28015338 501.57898143 -580.25390625 499.89453125 C-590.79204492 490.78574682 -590.79204492 490.78574682 -592.0625 483.625 C-592.24984166 477.54680384 -591.03676911 473.37204366 -587.0625 468.625 C-583.66246474 465.59663632 -580.74856109 463.91050944 -576.41772461 462.54125977 C-574.75591408 462.00403038 -574.75591408 462.00403038 -573.06053162 461.45594788 C-571.87395462 461.07989914 -570.68737762 460.7038504 -569.46484375 460.31640625 C-567.59073742 459.69380735 -565.71664982 459.07114381 -563.84379673 458.44478512 C-559.24465367 456.90682991 -554.64219945 455.38376983 -550.01538086 453.9309082 C-547.41341168 453.11252989 -544.8235122 452.26707403 -542.24085999 451.38963318 C-539.81611148 450.56643879 -537.37749226 449.78274127 -534.92552185 449.04457092 C-530.02711948 447.33070725 -526.9469237 446.19324309 -524.33425903 441.56051636 C-522.14884834 435.27912504 -522.14884834 435.27912504 -522.91337585 428.84635925 C-524.07010829 426.61029249 -525.31748893 424.66145254 -526.828125 422.6484375 C-527.38177734 421.9044873 -527.93542969 421.16053711 -528.50585938 420.39404297 C-529.10205078 419.60400879 -529.69824219 418.81397461 -530.3125 418 C-531.57820519 416.30214311 -532.84382775 414.60422462 -534.109375 412.90625 C-534.76099609 412.03613281 -535.41261719 411.16601562 -536.08398438 410.26953125 C-539.25961106 406.02491277 -542.41234058 401.76353377 -545.5625 397.5 C-546.12485352 396.74380371 -546.68720703 395.98760742 -547.26660156 395.20849609 C-560.22607724 377.69120601 -560.22607724 377.69120601 -559.0625 368.625 C-557.24285995 363.15619051 -554.77704517 359.98394766 -550.0625 356.625 C-539.07083163 352.89154931 -526.54145008 352.08221755 -515.09057617 350.40795898 C-511.84279469 349.93278816 -508.59615915 349.45030481 -505.34960938 348.96679688 C-503.2813124 348.66103594 -501.21295518 348.35568217 -499.14453125 348.05078125 C-498.17586624 347.90707596 -497.20720123 347.76337067 -496.20918274 347.61531067 C-495.31362167 347.48484848 -494.41806061 347.35438629 -493.49536133 347.2199707 C-492.70930008 347.10466507 -491.92323883 346.98935944 -491.11335754 346.87055969 C-489.0625 346.625 -489.0625 346.625 -486.0625 346.625 C-485.69125 345.3875 -485.69125 345.3875 -485.3125 344.125 C-484.0625 340.625 -484.0625 340.625 -482.87207031 338.98583984 C-481.37465299 336.82758768 -480.60042294 335.2097043 -480.0625 332.625 C-481.1982329 327.99811603 -483.3733175 323.96164497 -485.5625 319.75 C-486.17042608 318.52228357 -486.7748743 317.29283939 -487.37597656 316.06176758 C-488.62294422 313.51565865 -489.88446974 310.97764551 -491.15820312 308.44482422 C-494.15942987 302.45515246 -496.98604237 296.38624727 -499.8125 290.3125 C-500.32490234 289.24080566 -500.83730469 288.16911133 -501.36523438 287.06494141 C-507.38477075 274.22723304 -507.38477075 274.22723304 -505.0625 267.0625 C-503.28789501 262.25627816 -500.34536068 259.3504568 -496.0625 256.625 C-492.13326738 255.31525579 -488.38894621 255.44788521 -484.29296875 255.45703125 C-482.96872139 255.45761284 -482.96872139 255.45761284 -481.61772156 255.45820618 C-474.98174167 255.50777591 -468.41282033 255.9082876 -461.80078125 256.44921875 C-458.95041767 256.66266943 -456.09985608 256.87331701 -453.24926758 257.08374023 C-451.31187785 257.23793493 -449.37587652 257.41054133 -447.44165039 257.6003418 C-436.19614158 258.86729351 -436.19614158 258.86729351 -425.59130859 255.82275391 C-422.20929184 252.51537302 -420.10085975 249.5559134 -420.03686523 244.66635132 C-420.52567816 239.98441403 -421.87242143 235.57177869 -423.29388428 231.09960938 C-424.58798297 226.93317267 -425.60853359 222.69777219 -426.67578125 218.46875 C-427.12121999 216.74952563 -427.56849265 215.0307754 -428.01757812 213.3125 C-428.24002197 212.45914063 -428.46246582 211.60578125 -428.69165039 210.7265625 C-429.1513157 208.97658267 -429.61592323 207.22789432 -430.08520508 205.48046875 C-435.80549692 184.11099385 -435.80549692 184.11099385 -431.375 175.25 C-426.74055813 169.9892822 -422.80566231 168.17940815 -415.97967529 167.60250854 C-410.44641905 167.64517001 -405.28330499 169.20785901 -399.9765625 170.66015625 C-398.75722015 170.97705917 -397.53787781 171.2939621 -396.28158569 171.62046814 C-392.41250918 172.62697486 -388.54959191 173.65463731 -384.6875 174.6875 C-380.80399009 175.72376715 -376.91894352 176.75276824 -373.02914429 177.76524353 C-370.61495079 178.39374881 -368.20413427 179.0354018 -365.79727173 179.69142151 C-364.70868866 179.97509079 -363.62010559 180.25876007 -362.49853516 180.55102539 C-361.54274567 180.80719131 -360.58695618 181.06335724 -359.60220337 181.32728577 C-356.65197261 181.67312367 -355.54119443 181.17321948 -353.0625 179.625 C-352.27883057 179.2945166 -351.49516113 178.9640332 -350.68774414 178.62353516 C-347.61308617 176.9157737 -346.02393895 175.5778269 -344.0625 172.625 C-342.74028069 165.90635058 -343.88557405 158.75238661 -344.5 152 C-344.78346573 148.27963374 -345.04424262 144.5577049 -345.30859375 140.8359375 C-345.41160294 139.4556839 -345.41160294 139.4556839 -345.51669312 138.04754639 C-345.996258 131.39869326 -346.27620942 124.76746721 -346.34765625 118.1015625 C-346.36678574 117.23679291 -346.38591522 116.37202332 -346.40562439 115.48104858 C-346.41675537 109.7408058 -345.60607954 105.34980149 -341.52734375 100.98046875 C-335.27195264 96.19693437 -330.90315559 95.73264057 -323.0625 96.625 C-318.46100864 98.11044315 -314.24805197 100.19857583 -309.9375 102.375 C-308.72409489 102.95913398 -307.50921748 103.54021836 -306.29296875 104.1184082 C-300.69065579 106.79491887 -295.14409126 109.56531265 -289.64700317 112.45169067 C-287.9081881 113.35786933 -286.15749795 114.24114281 -284.40673828 115.12402344 C-282.2302346 116.22292105 -280.07307662 117.36130264 -277.94091797 118.54394531 C-273.39857539 120.811055 -270.70357058 122.13759492 -265.71875 120.58056641 C-262.72047599 119.06849042 -259.91653333 117.38814416 -257.0625 115.625 C-256.4025 115.625 -255.7425 115.625 -255.0625 115.625 C-254.91554688 114.40554687 -254.76859375 113.18609375 -254.6171875 111.9296875 C-253.09831803 99.65675302 -251.36584387 87.41240844 -249.51055908 75.18609619 C-249.25468591 73.48644539 -249.00378329 71.78603845 -248.75799561 70.0848999 C-248.40601558 67.65842755 -248.03530117 65.23548534 -247.66015625 62.8125 C-247.55906052 62.09031281 -247.45796478 61.36812561 -247.35380554 60.62405396 C-246.32872631 54.23757295 -244.25541619 49.32562888 -239 45.25 C-234.37377892 42.69081387 -230.29254508 41.95297973 -225.0625 42.625 C-218.82647291 44.91255088 -213.56073071 48.96811911 -208.3125 52.9375 C-207.09880737 53.84314697 -207.09880737 53.84314697 -205.8605957 54.76708984 C-203.25611936 56.71301181 -200.65876489 58.6681387 -198.0625 60.625 C-195.33686362 62.67422242 -192.61064364 64.72266257 -189.88378906 66.77026367 C-188.16654053 68.06106534 -186.45096168 69.35409223 -184.73730469 70.6496582 C-183.19778802 71.81029218 -181.6531024 72.96411534 -180.10229492 74.10961914 C-178.84340717 75.04485747 -177.59794623 75.99888945 -176.3762207 76.98217773 C-173.68246578 79.03984026 -172.38737863 79.64911049 -168.95703125 79.39453125 C-167.93996094 79.07871094 -166.92289062 78.76289062 -165.875 78.4375 C-164.85019531 78.13457031 -163.82539063 77.83164063 -162.76953125 77.51953125 C-160.86632593 76.89062213 -158.96406394 76.25885465 -157.0625 75.625 C-155.88594437 73.34718892 -155.88594437 73.34718892 -154.98120117 70.48193359 C-154.40996773 68.83419449 -154.40996773 68.83419449 -153.82719421 67.15316772 C-153.42402481 65.95535675 -153.02085541 64.75754578 -152.60546875 63.5234375 C-151.95529702 61.65143602 -151.30510669 59.77944076 -150.65385151 57.90781593 C-149.05019812 53.28584928 -147.47304207 48.65477452 -145.89526367 44.02392578 C-145.0107057 41.43051967 -144.11758554 38.84033716 -143.21589661 36.25283813 C-142.36812604 33.81689682 -141.53375529 31.37623918 -140.71464539 28.93051147 C-137.93846935 20.98205232 -135.10872421 15.11498413 -127.8125 10.625 C-121.88713305 9.04490215 -116.68470882 9.1864271 -111.25 12.16796875 C-107.01588585 15.17341258 -103.62288279 19.06935647 -100.125 22.875 C-99.44759766 23.60074219 -98.77019531 24.32648437 -98.07226562 25.07421875 C-94.2002411 29.23952222 -90.42111251 33.47582055 -86.69018555 37.76757812 C-83.87846373 40.97615464 -80.97287302 44.09618392 -78.0703125 47.22265625 C-75.8173842 49.66332858 -73.78109236 52.03034299 -71.8828125 54.76464844 C-69.63179633 57.45788163 -69.07542476 57.62209377 -65.37744141 58.45361328 C-59.58114903 58.49232872 -54.77299753 58.19780655 -50.39355469 54.17089844 C-48.08823951 50.71451848 -46.24257423 47.23146345 -44.4375 43.5 C-43.74313511 42.1821927 -43.04219435 40.86783083 -42.33496094 39.55688477 C-40.9032893 36.89232359 -39.49913042 34.21601789 -38.11425781 31.52685547 C-35.09744526 25.72205868 -31.71859706 20.14645971 -28.3125 14.5625 C-27.75224121 13.61294434 -27.19198242 12.66338867 -26.61474609 11.68505859 C-20.5707389 1.64001091 -11.99740568 -4.92916667 0 0 Z M-36.0625 121.625 C-41.4904102 130.18903609 -41.78932525 138.75655574 -41.0625 148.625 C-40.20799675 152.00394998 -38.91857654 154.68765769 -37.0625 157.625 C-36.63839844 158.32109375 -36.21429687 159.0171875 -35.77734375 159.734375 C-30.44467142 167.63683093 -23.10571079 172.0565511 -13.890625 174.21875 C-3.67838736 175.68570126 4.77111497 172.6333307 13.125 166.9375 C19.12803179 162.20457074 22.94845771 155.96637429 24.9375 148.625 C25.90031364 138.54904331 25.38974444 129.6914468 19.2890625 121.37890625 C12.79455215 113.65072254 5.81128414 108.50130698 -4.40234375 107.19921875 C-17.75469403 106.68282951 -27.77378236 111.08849452 -36.0625 121.625 Z M-299.6875 270.46875 C-301.23872694 271.87710078 -302.80085873 273.27355835 -304.375 274.65625 C-309.8173024 279.45406922 -315.03171287 284.46060189 -320.1875 289.5625 C-320.86385498 290.22588379 -321.54020996 290.88926758 -322.23706055 291.57275391 C-323.17545776 292.50933838 -323.17545776 292.50933838 -324.1328125 293.46484375 C-324.97996826 294.30583618 -324.97996826 294.30583618 -325.84423828 295.16381836 C-327.27595791 296.56395065 -327.27595791 296.56395065 -327.0625 298.625 C-326.07482923 298.62635653 -325.08715845 298.62771306 -324.06955826 298.62911069 C-280.51290584 298.68906375 -236.95625741 298.75150755 -193.39962769 298.82632446 C-192.73953607 298.82745809 -192.07944445 298.82859171 -191.39935006 298.82975969 C-177.05156889 298.85441481 -162.70378851 298.87950786 -148.35600889 298.90505161 C-141.3192079 298.91757676 -134.28240673 298.93000521 -127.24560547 298.94238281 C-126.19527186 298.9442328 -126.19527186 298.9442328 -125.1237194 298.94612016 C-102.45369126 298.98600434 -79.78365919 299.01951066 -57.11361622 299.04968691 C-33.14292265 299.08162927 -9.17225094 299.12088704 14.79841816 299.16779006 C29.14889759 299.19563482 43.49936167 299.21768524 57.8498608 299.23226251 C67.69801695 299.24282578 77.54614337 299.2606706 87.39427708 299.28416704 C93.07131236 299.29749904 98.74830605 299.30769186 104.42535782 299.30921364 C109.63343341 299.31068093 114.84140906 299.32139071 120.04945387 299.33913441 C121.92324192 299.3439435 123.7970421 299.34549945 125.670835 299.34327881 C141.12665956 299.32798267 156.50725927 300.08003945 171.5625 303.875 C172.43801514 304.09115967 173.31353027 304.30731934 174.21557617 304.5300293 C198.68808558 310.78587445 221.97646278 322.92402449 240.9375 339.625 C241.81148437 340.38941406 242.68546875 341.15382813 243.5859375 341.94140625 C273.61548214 368.58924541 292.95774993 404.18163483 295.71875 444.53125 C297.34343404 476.16480389 287.07436002 507.17079719 266.9375 531.625 C266.25083252 532.46973877 266.25083252 532.46973877 265.55029297 533.33154297 C251.34366163 550.7395349 234.31217149 564.3452255 214.9375 575.625 C217.53277071 578.23935358 220.14280582 580.82026369 222.8125 583.359375 C249.2905881 608.71884968 266.15751567 641.51314211 275.0625 676.8125 C278.80052384 691.1702652 286.28795949 701.53756298 299.18359375 709.16015625 C312.69502389 716.34708717 327.07711869 718.73194116 341.9375 714.625 C354.4784125 709.8390114 364.13267775 701.80052339 369.9375 689.625 C373.99768622 680.11986207 376.21096855 670.86520429 376.28125 660.5390625 C376.3031842 659.30366226 376.3031842 659.30366226 376.32556152 658.04330444 C376.38726292 654.5597807 376.42763478 651.07609806 376.46923828 647.59228516 C376.50291096 645.03268764 376.54798949 642.47346779 376.59375 639.9140625 C376.5990271 639.12657623 376.6043042 638.33908997 376.60974121 637.52774048 C376.67972027 633.71162281 376.77089027 631.8749146 378.9375 628.625 C381.69920144 627.70443285 383.45928855 627.47699851 386.31713867 627.41967773 C387.19782516 627.39973251 388.07851166 627.37978729 388.98588562 627.35923767 C390.40632927 627.33416893 390.40632927 627.33416893 391.85546875 627.30859375 C392.82784988 627.28781265 393.80023102 627.26703156 394.80207825 627.24562073 C397.90964665 627.18021252 401.01729985 627.12128071 404.125 627.0625 C406.23112858 627.01930649 408.33724856 626.97569193 410.44335938 626.93164062 C415.60798591 626.82454001 420.77269778 626.72324781 425.9375 626.625 C427.19545047 620.77694198 427.09932591 614.98612635 427.10546875 609.03515625 C427.10879715 607.899608 427.11212555 606.76405975 427.11555481 605.59410095 C427.12061402 603.18423872 427.12296345 600.77436949 427.12280273 598.36450195 C427.12495718 594.75915132 427.14303374 591.15412334 427.16210938 587.54882812 C427.19592666 573.56399626 426.77917742 559.71692921 425.18621826 545.8130188 C424.97290328 543.93644895 424.81323041 542.05391696 424.66430664 540.17114258 C424.16270936 537.48713887 424.16270936 537.48713887 421.92236328 536.00097656 C421.04306152 535.59331055 420.16375977 535.18564453 419.2578125 534.765625 C417.78586426 534.06010498 417.78586426 534.06010498 416.28417969 533.34033203 C415.22102539 532.85677246 414.15787109 532.37321289 413.0625 531.875 C410.84028451 530.81691124 408.6189381 529.75699542 406.3984375 528.6953125 C404.74279785 527.91462402 404.74279785 527.91462402 403.05371094 527.11816406 C398.86656652 525.11185136 394.77518315 522.95004279 390.6875 520.75 C385.11095862 517.76864087 379.49072376 514.89236321 373.81640625 512.1015625 C372.8815892 511.64035507 372.8815892 511.64035507 371.92788696 511.16983032 C368.83337415 509.64355037 365.7352912 508.12556895 362.62988281 506.62158203 C351.24428972 501.01891741 343.35857141 495.55243838 337.125 484.375 C332.0419992 468.32341852 338.17971673 455.20861646 345.5 441.0625 C346.22768335 439.63427681 346.95440013 438.20556076 347.68017578 436.77636719 C351.497927 429.27833455 355.38246734 421.81477128 359.3125 414.375 C359.69253174 413.65481689 360.07256348 412.93463379 360.46411133 412.19262695 C360.83947021 411.48195068 361.2148291 410.77127441 361.6015625 410.0390625 C361.97442383 409.33297852 362.34728516 408.62689453 362.73144531 407.89941406 C363.60157482 406.25849778 364.47652416 404.62013414 365.35449219 402.98339844 C366.81626895 400.24774635 368.25363134 397.50036202 369.6875 394.75 C370.14302246 393.91049805 370.59854492 393.07099609 371.06787109 392.20605469 C373.48685844 387.77512679 373.48685844 387.77512679 373.3984375 382.91796875 C372.91632812 382.16128906 372.43421875 381.40460938 371.9375 380.625 C371.25300781 379.28501953 371.25300781 379.28501953 370.5546875 377.91796875 C356.92207331 353.61768113 340.5105362 330.39943545 321.9375 309.625 C321.13570312 308.72394531 320.33390625 307.82289063 319.5078125 306.89453125 C318.03057365 305.24605537 316.54770611 303.6026019 315.05859375 301.96484375 C313.66376866 300.4261693 312.28053372 298.87689389 310.91015625 297.31640625 C302.28169316 287.53105426 293.10142415 277.87304725 283.109375 269.4609375 C281.32178632 267.94984635 279.57193171 266.41230053 277.828125 264.8515625 C249.02959718 239.21971905 216.24798378 218.95872175 181.9375 201.625 C181.12555176 201.21362793 180.31360352 200.80225586 179.47705078 200.37841797 C151.29734634 186.22620813 121.05894765 176.29597052 90.4375 169 C89.68863525 168.81943054 88.93977051 168.63886108 88.16821289 168.45281982 C86.04170251 167.94406424 83.91244572 167.4496502 81.78125 166.9609375 C80.55599609 166.67782715 79.33074219 166.3947168 78.06835938 166.10302734 C74.92587691 165.62322536 73.8118367 165.47185517 70.9375 166.625 C68.95359281 168.36079438 67.14227285 170.09260589 65.31787109 171.98339844 C64.76764282 172.54122009 64.21741455 173.09904175 63.6505127 173.67376709 C62.45667898 174.88570589 61.26625954 176.10101526 60.07886887 177.31926727 C58.19331832 179.25243917 56.29766669 181.17515379 54.39883423 183.09527588 C49.0018166 188.55641345 43.62302629 194.03533533 38.25244141 199.52246094 C34.9647552 202.88004081 31.66466409 206.22502721 28.35707474 209.56299591 C27.10441621 210.83233015 25.85658217 212.10644575 24.61390305 213.38555145 C15.08659456 223.19068627 6.68388236 230.63373602 -7.625 230.9375 C-25.48082287 230.71545868 -34.95310456 218.90529859 -46.68885803 207.0432415 C-48.38440643 205.33001339 -50.08372236 203.62060133 -51.78405762 201.91212463 C-56.60943187 197.06252073 -61.42879432 192.20697251 -66.24414062 187.34741211 C-69.20811076 184.35674644 -72.17686565 181.37090125 -75.14866638 178.38801765 C-76.27652504 177.25394424 -77.40248176 176.11797607 -78.52650452 174.98010063 C-80.08675882 173.40074602 -81.65297003 171.82754108 -83.22070312 170.25561523 C-84.10987427 169.35898666 -84.99904541 168.46235809 -85.91516113 167.53855896 C-112.46257274 143.88135323 -271.84015033 245.12052146 -299.6875 270.46875 Z M-466.0625 433.625 C-471.85804859 442.70380662 -473.62118164 451.86318671 -471.484375 462.50390625 C-468.66814326 471.50304675 -462.75247372 478.64891634 -454.75 483.625 C-446.18449469 487.81821776 -437.09224566 488.63491522 -428.0625 485.625 C-418.53977709 482.14107699 -411.91914485 476.10972012 -407.625 466.875 C-403.95013851 457.50167487 -404.25957128 448.90184128 -408.0625 439.625 C-412.17137242 431.56528871 -418.46596626 425.53017338 -426.6875 421.6875 C-441.95955159 416.80044349 -455.88375837 422.02051265 -466.0625 433.625 Z M405.9375 424.625 C405.24140625 425.04910156 404.5453125 425.47320312 403.828125 425.91015625 C395.40498975 431.59418925 390.86296825 439.75697522 388.9375 449.625 C387.69240056 458.73843618 391.01327802 467.26891211 396.28125 474.58984375 C402.31785878 482.00746916 409.87921179 485.95610672 419.3125 487.5625 C428.09672361 488.19993924 437.19628178 485.24268185 443.9375 479.625 C451.05501163 473.1355041 455.102223 466.26371197 456.3125 456.64453125 C456.7225594 446.73903397 454.17630042 438.86403377 447.8125 431.25 C442.19343804 425.39836097 434.90765404 420.98852446 426.6796875 420.38671875 C418.94297831 420.23823645 412.64860017 420.3843245 405.9375 424.625 Z M-364.0625 435.625 C-359.6075 445.03 -359.6075 445.03 -355.0625 454.625 C-351.45643607 464.24117047 -349.26723321 473.71900548 -353.0625 483.625 C-358.34327663 494.6742683 -365.78809086 499.86117561 -376.5 505.25 C-377.50063477 505.76288574 -378.50126953 506.27577148 -379.53222656 506.80419922 C-387.76604562 511.01085763 -396.04395517 515.13174465 -404.32397461 519.24658203 C-411.54489741 522.84132901 -418.70390352 526.54052863 -425.82519531 530.32861328 C-426.53256836 530.7048584 -427.23994141 531.08110352 -427.96875 531.46875 C-428.64349365 531.83540771 -429.3182373 532.20206543 -430.01342773 532.57983398 C-432.0625 533.625 -432.0625 533.625 -434.31665039 534.53149414 C-436.43737302 535.41372801 -438.23039875 536.23800794 -440.0625 537.625 C-441.04863736 540.4857747 -441.39654883 542.15188723 -441.5 545.0625 C-441.60183594 546.36058594 -441.70367187 547.65867187 -441.80859375 548.99609375 C-441.8461377 549.72924805 -441.88368164 550.46240234 -441.92236328 551.21777344 C-442.01819184 552.86388766 -442.14843438 554.50826194 -442.30810547 556.14941406 C-443.45201761 568.23287815 -443.30641372 580.37365057 -443.3125 592.5 C-443.31317474 593.7060791 -443.31384949 594.9121582 -443.31454468 596.15478516 C-443.29795357 614.83854877 -442.72325352 633.10709831 -440.0625 651.625 C-439.89621094 652.83269043 -439.72992188 654.04038086 -439.55859375 655.28466797 C-437.46462081 670.14605923 -434.51128091 684.7009533 -430.875 699.25 C-430.70078522 699.94793671 -430.52657043 700.64587341 -430.34707642 701.36495972 C-428.30117655 709.70810143 -428.30117655 709.70810143 -425.0625 717.625 C-381.1725 717.625 -337.2825 717.625 -292.0625 717.625 C-292.0625 624.565 -292.0625 531.505 -292.0625 435.625 C-315.8225 435.625 -339.5825 435.625 -364.0625 435.625 Z M-98.0625 435.625 C-98.0625 461.365 -98.0625 487.105 -98.0625 513.625 C-71.1308827 513.74167874 -71.1308827 513.74167874 -44.19921875 513.8203125 C-33.2048388 513.84397892 -22.21058212 513.87168831 -11.21630859 513.92675781 C-3.20659402 513.96685846 4.80301982 513.99248753 12.812832 514.00135398 C17.04674396 514.00652978 21.28036798 514.01853346 25.51418686 514.04792023 C54.88622466 514.79558439 54.88622466 514.79558439 82.5 505.9375 C83.15073486 505.5957373 83.80146973 505.25397461 84.47192383 504.90185547 C93.66542747 499.84135852 100.55306611 492.6876472 103.9375 482.625 C105.6376729 475.20799571 105.20179518 468.53367951 101.9375 461.625 C93.15116194 447.63026567 80.13579676 441.37716053 64.578125 437.38671875 C55.74654893 435.53891045 47.16279813 435.48751279 38.16796875 435.51147461 C36.67912294 435.51175704 35.190277 435.51159765 33.70143127 435.5110321 C29.67929368 435.51074632 25.65718617 435.51660755 21.63505554 435.52360606 C17.42434849 435.52987617 13.21364068 435.53044629 9.00292969 435.53163147 C1.03813844 435.53473402 -6.926639 435.54293288 -14.89142418 435.55298096 C-25.66045239 435.56627058 -36.4294844 435.5716507 -47.19851875 435.57748318 C-64.1531895 435.58687352 -81.10783112 435.60679962 -98.0625 435.625 Z M-98.0625 639.625 C-98.0625 665.365 -98.0625 691.105 -98.0625 717.625 C-91.02292969 717.66238281 -83.98335937 717.69976563 -76.73046875 717.73828125 C-72.27797001 717.76854754 -67.82551191 717.79968662 -63.37304688 717.83398438 C-56.30169683 717.88837204 -49.23042717 717.93947924 -42.15893555 717.97143555 C-36.45946822 717.9973934 -30.76026979 718.0377423 -25.0609684 718.08818626 C-22.88364309 718.10490596 -20.70627121 718.11638834 -18.52889061 718.12261391 C-15.48536175 718.13219956 -12.44252884 718.16019232 -9.39916992 718.19262695 C-8.49358337 718.19119186 -7.58799683 718.18975677 -6.65496826 718.1882782 C-5.41190163 718.20708542 -5.41190163 718.20708542 -4.14372253 718.22627258 C-3.06384205 718.23318603 -3.06384205 718.23318603 -1.96214581 718.24023914 C0.58957011 718.75707254 1.44231702 719.50084042 2.9375 721.625 C3.31502342 724.00040436 3.31502342 724.00040436 3.31845093 726.86291504 C3.3269104 727.94812943 3.33536987 729.03334381 3.34408569 730.15144348 C3.33497665 731.93756294 3.33497665 731.93756294 3.32568359 733.75976562 C3.33356903 735.64051033 3.33356903 735.64051033 3.34161377 737.55924988 C3.35256739 740.99943667 3.34998303 744.43908333 3.34047651 747.87924004 C3.33288745 751.47732145 3.33992342 755.0753796 3.34463501 758.67346191 C3.35009478 764.71610667 3.34289522 770.75864147 3.32861328 776.80126953 C3.31228626 783.78992414 3.31757461 790.77831619 3.3340925 797.76696444 C3.34770113 803.76449727 3.3496301 809.76195102 3.34177649 815.7594943 C3.33709651 819.34278385 3.33648393 822.92594993 3.34638596 826.50923157 C3.35665118 830.5030032 3.34242829 834.49648014 3.32568359 838.49023438 C3.33175629 839.68098068 3.33782898 840.87172699 3.34408569 842.09855652 C3.33562622 843.1837709 3.32716675 844.26898529 3.31845093 845.38708496 C3.31731985 846.33171349 3.31618877 847.27634201 3.31502342 848.24959564 C2.84988139 851.17630253 2.29714865 851.86757594 -0.0625 853.625 C-2.71777791 854.00400752 -2.71777791 854.00400752 -5.99142742 854.00976086 C-7.23748939 854.0192174 -8.48355136 854.02867394 -9.76737279 854.03841704 C-11.15771619 854.03378685 -12.5480587 854.02888033 -13.93840027 854.02372742 C-15.40942364 854.02916331 -16.88044265 854.03591338 -18.35145456 854.04386932 C-22.40368734 854.06196133 -26.45573751 854.06132946 -30.50800121 854.05773985 C-34.87407283 854.05711785 -39.24008218 854.07371867 -43.60612488 854.08825684 C-51.17390079 854.11108534 -58.74163054 854.12293526 -66.30943871 854.12738609 C-77.25128577 854.13383708 -88.19304925 854.15675586 -99.1348627 854.18372939 C-116.8860393 854.22704039 -134.6372124 854.25698248 -152.38842773 854.27856445 C-169.63486457 854.29956124 -186.88127266 854.32682495 -204.12768555 854.36254883 C-205.72155893 854.36584707 -205.72155893 854.36584707 -207.34763177 854.36921193 C-212.67814946 854.38028126 -218.00866687 854.39147413 -223.33918417 854.40272844 C-267.58026408 854.49597458 -311.8213601 854.56754423 -356.0625 854.625 C-355.12502842 856.05167658 -354.18478638 857.47653289 -353.2434082 858.90063477 C-352.72011429 859.69429947 -352.19682037 860.48796417 -351.65766907 861.30567932 C-349.40039979 864.58767082 -346.8787579 867.57555207 -344.25 870.5625 C-343.4755957 871.45473267 -343.4755957 871.45473267 -342.68554688 872.36499023 C-338.8464437 876.77414566 -334.94678217 881.12835074 -331 885.44140625 C-329.0625 887.625 -329.0625 887.625 -327.53051758 890.31738281 C-325.38828896 892.78608873 -325.38828896 892.78608873 -323.14779663 892.823349 C-320.60608265 892.59693619 -318.14621284 892.19426461 -315.63671875 891.73046875 C-314.67650314 891.57595749 -313.71628754 891.42144623 -312.72697449 891.26225281 C-310.62186908 890.92082653 -308.5187201 890.56717409 -306.41741943 890.20306396 C-302.98112451 889.61097873 -299.5405017 889.0575718 -296.09619141 888.51416016 C-287.40511602 887.13980855 -278.71899333 885.73522907 -270.03686523 884.30541992 C-266.30313898 883.69192147 -262.56778247 883.0893086 -258.83203125 882.48828125 C-257.71101517 882.3008284 -256.58999908 882.11337555 -255.43501282 881.92024231 C-242.31377491 879.82809795 -231.10387907 879.56336961 -219.75 887.3125 C-207.91157116 897.0161302 -206.76756772 911.37152518 -205.01200294 925.61839867 C-204.37293667 930.69907011 -203.65312964 935.76915152 -202.95128345 940.84145641 C-202.34239884 945.27565401 -201.76013266 949.71047532 -201.23168945 954.1550293 C-200.71467272 958.48982225 -200.12637289 962.809667 -199.4899044 967.12847328 C-199.26208498 968.76238046 -199.0597862 970.40007672 -198.8848362 972.04048729 C-198.10460605 980.90441318 -198.10460605 980.90441318 -193.41350746 988.0815773 C-189.52582385 990.63193121 -185.3798052 992.38030994 -181.01071739 993.93201923 C-178.18610116 994.93673499 -175.44796385 996.13606021 -172.69140625 997.3125 C-170.67341127 998.09410855 -168.65116585 998.86482397 -166.625 999.625 C-165.5201123 1000.04305908 -164.41522461 1000.46111816 -163.27685547 1000.8918457 C-126.08059332 1014.78694036 -87.58304016 1023.75267042 -48.0625 1027.625 C-46.72372803 1027.76856934 -46.72372803 1027.76856934 -45.35791016 1027.91503906 C-33.34056388 1029.04223342 -21.24599354 1028.86894778 -9.1875 1028.875 C-7.9814209 1028.87567474 -6.7753418 1028.87634949 -5.53271484 1028.87704468 C13.15104877 1028.86045357 31.41959831 1028.28575352 49.9375 1025.625 C51.14519043 1025.45871094 52.35288086 1025.29242187 53.59716797 1025.12109375 C94.62603183 1019.3401188 136.56965539 1007.81316 173.9375 989.625 C175.19904907 989.06660683 175.19904907 989.06660683 176.48608398 988.49693298 C179.94805319 985.85332851 179.9223762 983.77566481 180.54321289 979.51416016 C180.6545607 978.79333252 180.76590851 978.07250488 180.88063049 977.32983398 C181.24428386 974.94381808 181.57680854 972.55448381 181.91015625 970.1640625 C182.1602547 968.49522103 182.4126044 966.82671554 182.667099 965.15853882 C183.33373996 960.75701294 183.97549746 956.35224622 184.6104126 951.94604492 C185.62433016 944.92947488 186.67022751 937.91772355 187.72649956 930.90742111 C188.08848151 928.47569663 188.43657173 926.04229257 188.78297424 923.60830688 C192.75431532 896.38770734 192.75431532 896.38770734 203.0078125 887.9140625 C215.70398043 878.84537112 227.90362362 880.06616785 242.66856384 882.48023987 C243.45548048 882.6114731 244.24239712 882.74270634 245.05315971 882.87791634 C247.54483982 883.29328228 250.03809598 883.6976736 252.53199768 884.09947205 C257.81458534 884.9525476 263.09489233 885.8192263 268.375 886.6875 C274.52220055 887.69768824 280.67023298 888.70222232 286.82048225 889.69369316 C289.27447378 890.09211662 291.7267339 890.50018743 294.17906189 890.90870667 C295.6797652 891.15192129 297.18053967 891.39469733 298.68139648 891.63696289 C299.36039001 891.75276703 300.03938354 891.86857117 300.73895264 891.98788452 C304.05345873 892.51263511 306.77307329 892.88409157 309.9375 891.625 C311.61728314 890.12787982 311.61728314 890.12787982 313.125 888.1875 C315.74175383 885.04850655 318.41398595 882.00174597 321.1875 879 C324.8936482 874.8926708 328.38839466 870.6546296 331.8125 866.3125 C332.50907715 865.43247314 332.50907715 865.43247314 333.21972656 864.53466797 C335.70879054 861.34549785 337.89065301 858.10952214 339.9375 854.625 C339.02273329 854.62261165 338.10796658 854.62022329 337.16547966 854.61776257 C314.86211623 854.55851364 292.55885997 854.48290048 270.25561333 854.38928509 C259.46973526 854.3444033 248.68388965 854.30497119 237.89794922 854.27856445 C228.49212794 854.25552256 219.08641004 854.22205576 209.68067086 854.17629844 C204.70476084 854.15244949 199.72895268 854.1336663 194.75298691 854.12738609 C190.05962803 854.12129736 185.36652948 854.10116224 180.67326736 854.07072449 C178.9601803 854.06200455 177.24705913 854.05820898 175.53395081 854.05999184 C156.9470289 854.07321589 140.24465046 851.53236445 126.24609375 838.09375 C104.00637077 814.31116976 99.04491571 779.68274088 92.45635986 749.03662109 C81.81807617 692.40412375 81.81807617 692.40412375 46.8125 648.875 C34.9257667 641.66583876 22.12952668 639.46592709 8.42431641 639.51147461 C7.27251892 639.51132858 6.12072144 639.51118256 4.934021 639.5110321 C1.13568219 639.51172749 -2.66260728 639.51950241 -6.4609375 639.52734375 C-9.09795098 639.52920926 -11.73496481 639.53063253 -14.37197876 639.53163147 C-20.59791446 639.53473453 -26.82383252 639.54293407 -33.04976046 639.55298096 C-40.83655567 639.56527281 -48.62335376 639.57073275 -56.41015625 639.57617188 C-70.29428456 639.5859001 -84.1783744 639.60593422 -98.0625 639.625 Z M-301.0625 939.625 C-306.82070498 948.21549279 -309.20865651 956.93556092 -307.5 967.1875 C-305.09105487 976.10538298 -299.64667053 983.44018524 -292.0625 988.625 C-283.37959654 993.38752899 -274.80738322 995.05590861 -265.125 992.5 C-255.19076957 989.21910977 -248.79801999 983.40944908 -243.80859375 974.34765625 C-239.85275213 965.84328594 -239.76595778 956.85778523 -242.5 947.9375 C-246.30013709 938.80383717 -252.87048369 932.50576745 -261.80078125 928.46484375 C-276.57388473 922.97914902 -291.06374036 927.91316615 -301.0625 939.625 Z M230.9375 939.625 C225.35475919 948.39054476 224.10435757 956.31783791 224.9375 966.625 C227.14310415 976.00546102 232.76316415 983.91628156 240.875 989.0625 C249.2515571 993.6372914 257.59914004 994.92290623 266.875 992.5 C276.03272647 989.48962602 283.24872172 983.85572486 288.15625 975.56640625 C292.04015375 967.78472767 292.99309174 959.23265811 290.72265625 950.8125 C286.89086333 940.13685804 280.42430154 933.3998253 270.26953125 928.5703125 C255.63310521 922.63728888 240.87818283 928.10813683 230.9375 939.625 Z " fill="#000000" transform="translate(608.0625,6.375)"/>
</svg>
