<?xml version="1.0" standalone="no"?>
<!DOCTYPE svg PUBLIC "-//W3C//DTD SVG 20010904//EN"
 "http://www.w3.org/TR/2001/REC-SVG-20010904/DTD/svg10.dtd">
<svg version="1.0" xmlns="http://www.w3.org/2000/svg"
 width="32.000000pt" height="32.000000pt" viewBox="0 0 32.000000 32.000000"
 preserveAspectRatio="xMidYMid meet">

<g transform="translate(0.000000,32.000000) scale(0.100000,-0.100000)"
fill="#000000" stroke="none">
<path d="M142 226 c-34 -24 -64 -45 -66 -47 -3 -2 14 -12 36 -21 l41 -18 -19
21 c-19 21 -19 21 31 65 28 24 48 43 45 43 -3 0 -33 -20 -68 -43z"/>
<path d="M185 160 l20 -22 -50 -45 -50 -44 74 47 c40 27 67 50 60 53 -8 2 -27
10 -44 19 l-30 15 20 -23z"/>
</g>
</svg>
